<?xml version="1.0" encoding="utf-8"?>
<svg xmlns="http://www.w3.org/2000/svg" xmlns:xlink="http://www.w3.org/1999/xlink" width="600" height="400" viewBox="0 0 2400 1600">
<defs>
  <clipPath id="clip610">
    <rect x="0" y="0" width="2400" height="1600"/>
  </clipPath>
</defs>
<path clip-path="url(#clip610)" d="M0 1600 L2400 1600 L2400 0 L0 0  Z" fill="#ffffff" fill-rule="evenodd" fill-opacity="1"/>
<defs>
  <clipPath id="clip611">
    <rect x="480" y="0" width="1681" height="1600"/>
  </clipPath>
</defs>
<defs>
  <clipPath id="clip612">
    <rect x="141" y="47" width="2212" height="1440"/>
  </clipPath>
</defs>
<path clip-path="url(#clip612)" d="M1119.09 785.391 L1119.09 763.412 L1137.35 752.423 L1168.98 758.768 L1168.98 780.746 L1150.72 791.736 L1119.09 785.391  Z" fill="#ffffff" fill-rule="evenodd" fill-opacity="1"/>
<polyline clip-path="url(#clip612)" style="stroke:#000000; stroke-linecap:round; stroke-linejoin:round; stroke-width:2; stroke-opacity:0.1; fill:none" points="689.689,1205.54 1105.15,845.744 1105.15,126.142 "/>
<polyline clip-path="url(#clip612)" style="stroke:#000000; stroke-linecap:round; stroke-linejoin:round; stroke-width:2; stroke-opacity:0.1; fill:none" points="847.825,1251.19 1263.29,891.394 1263.29,171.792 "/>
<polyline clip-path="url(#clip612)" style="stroke:#000000; stroke-linecap:round; stroke-linejoin:round; stroke-width:2; stroke-opacity:0.1; fill:none" points="1005.96,1296.84 1421.42,937.044 1421.42,217.442 "/>
<polyline clip-path="url(#clip612)" style="stroke:#000000; stroke-linecap:round; stroke-linejoin:round; stroke-width:2; stroke-opacity:0.1; fill:none" points="1164.1,1342.49 1579.56,982.694 1579.56,263.092 "/>
<polyline clip-path="url(#clip612)" style="stroke:#000000; stroke-linecap:round; stroke-linejoin:round; stroke-width:2; stroke-opacity:0.1; fill:none" points="1322.24,1388.14 1737.7,1028.34 1737.7,308.742 "/>
<polyline clip-path="url(#clip610)" style="stroke:#000000; stroke-linecap:round; stroke-linejoin:round; stroke-width:4; stroke-opacity:1; fill:none" points="679.772,1202.68 1399.37,1410.41 "/>
<polyline clip-path="url(#clip610)" style="stroke:#000000; stroke-linecap:round; stroke-linejoin:round; stroke-width:4; stroke-opacity:1; fill:none" points="689.689,1205.54 694.674,1201.23 "/>
<polyline clip-path="url(#clip610)" style="stroke:#000000; stroke-linecap:round; stroke-linejoin:round; stroke-width:4; stroke-opacity:1; fill:none" points="847.825,1251.19 852.811,1246.88 "/>
<polyline clip-path="url(#clip610)" style="stroke:#000000; stroke-linecap:round; stroke-linejoin:round; stroke-width:4; stroke-opacity:1; fill:none" points="1005.96,1296.84 1010.95,1292.53 "/>
<polyline clip-path="url(#clip610)" style="stroke:#000000; stroke-linecap:round; stroke-linejoin:round; stroke-width:4; stroke-opacity:1; fill:none" points="1164.1,1342.49 1169.08,1338.18 "/>
<polyline clip-path="url(#clip610)" style="stroke:#000000; stroke-linecap:round; stroke-linejoin:round; stroke-width:4; stroke-opacity:1; fill:none" points="1322.24,1388.14 1327.22,1383.83 "/>
<path clip-path="url(#clip610)" d="M592.15 1234.23 L621.825 1234.23 L621.825 1238.17 L592.15 1238.17 L592.15 1234.23 Z" fill="#000000" fill-rule="nonzero" fill-opacity="1" /><path clip-path="url(#clip610)" d="M635.946 1247.13 L652.265 1247.13 L652.265 1251.06 L630.321 1251.06 L630.321 1247.13 Q632.983 1244.37 637.566 1239.74 Q642.172 1235.09 643.353 1233.75 Q645.598 1231.22 646.478 1229.49 Q647.381 1227.73 647.381 1226.04 Q647.381 1223.28 645.436 1221.55 Q643.515 1219.81 640.413 1219.81 Q638.214 1219.81 635.76 1220.58 Q633.33 1221.34 630.552 1222.89 L630.552 1218.17 Q633.376 1217.03 635.83 1216.46 Q638.284 1215.88 640.321 1215.88 Q645.691 1215.88 648.885 1218.56 Q652.08 1221.25 652.08 1225.74 Q652.08 1227.87 651.27 1229.79 Q650.483 1231.69 648.376 1234.28 Q647.797 1234.95 644.696 1238.17 Q641.594 1241.36 635.946 1247.13 Z" fill="#000000" fill-rule="nonzero" fill-opacity="1" /><path clip-path="url(#clip610)" d="M672.08 1219.58 Q668.469 1219.58 666.64 1223.15 Q664.834 1226.69 664.834 1233.82 Q664.834 1240.92 666.64 1244.49 Q668.469 1248.03 672.08 1248.03 Q675.714 1248.03 677.52 1244.49 Q679.348 1240.92 679.348 1233.82 Q679.348 1226.69 677.52 1223.15 Q675.714 1219.58 672.08 1219.58 M672.08 1215.88 Q677.89 1215.88 680.945 1220.48 Q684.024 1225.07 684.024 1233.82 Q684.024 1242.54 680.945 1247.15 Q677.89 1251.73 672.08 1251.73 Q666.27 1251.73 663.191 1247.15 Q660.135 1242.54 660.135 1233.82 Q660.135 1225.07 663.191 1220.48 Q666.27 1215.88 672.08 1215.88 Z" fill="#000000" fill-rule="nonzero" fill-opacity="1" /><path clip-path="url(#clip610)" d="M750.286 1279.88 L779.962 1279.88 L779.962 1283.82 L750.286 1283.82 L750.286 1279.88 Z" fill="#000000" fill-rule="nonzero" fill-opacity="1" /><path clip-path="url(#clip610)" d="M790.865 1292.78 L798.504 1292.78 L798.504 1266.41 L790.194 1268.08 L790.194 1263.82 L798.457 1262.15 L803.133 1262.15 L803.133 1292.78 L810.772 1292.78 L810.772 1296.71 L790.865 1296.71 L790.865 1292.78 Z" fill="#000000" fill-rule="nonzero" fill-opacity="1" /><path clip-path="url(#clip610)" d="M830.216 1265.23 Q826.605 1265.23 824.777 1268.8 Q822.971 1272.34 822.971 1279.47 Q822.971 1286.57 824.777 1290.14 Q826.605 1293.68 830.216 1293.68 Q833.851 1293.68 835.656 1290.14 Q837.485 1286.57 837.485 1279.47 Q837.485 1272.34 835.656 1268.8 Q833.851 1265.23 830.216 1265.23 M830.216 1261.53 Q836.027 1261.53 839.082 1266.13 Q842.161 1270.72 842.161 1279.47 Q842.161 1288.19 839.082 1292.8 Q836.027 1297.38 830.216 1297.38 Q824.406 1297.38 821.328 1292.8 Q818.272 1288.19 818.272 1279.47 Q818.272 1270.72 821.328 1266.13 Q824.406 1261.53 830.216 1261.53 Z" fill="#000000" fill-rule="nonzero" fill-opacity="1" /><path clip-path="url(#clip610)" d="M988.353 1310.88 Q984.742 1310.88 982.913 1314.45 Q981.108 1317.99 981.108 1325.12 Q981.108 1332.22 982.913 1335.79 Q984.742 1339.33 988.353 1339.33 Q991.987 1339.33 993.793 1335.79 Q995.622 1332.22 995.622 1325.12 Q995.622 1317.99 993.793 1314.45 Q991.987 1310.88 988.353 1310.88 M988.353 1307.18 Q994.163 1307.18 997.219 1311.78 Q1000.3 1316.37 1000.3 1325.12 Q1000.3 1333.84 997.219 1338.45 Q994.163 1343.03 988.353 1343.03 Q982.543 1343.03 979.464 1338.45 Q976.409 1333.84 976.409 1325.12 Q976.409 1316.37 979.464 1311.78 Q982.543 1307.18 988.353 1307.18 Z" fill="#000000" fill-rule="nonzero" fill-opacity="1" /><path clip-path="url(#clip610)" d="M1107.14 1384.08 L1114.78 1384.08 L1114.78 1357.71 L1106.47 1359.38 L1106.47 1355.12 L1114.73 1353.45 L1119.41 1353.45 L1119.41 1384.08 L1127.05 1384.08 L1127.05 1388.01 L1107.14 1388.01 L1107.14 1384.08 Z" fill="#000000" fill-rule="nonzero" fill-opacity="1" /><path clip-path="url(#clip610)" d="M1146.49 1356.53 Q1142.88 1356.53 1141.05 1360.1 Q1139.24 1363.64 1139.24 1370.77 Q1139.24 1377.87 1141.05 1381.44 Q1142.88 1384.98 1146.49 1384.98 Q1150.12 1384.98 1151.93 1381.44 Q1153.76 1377.87 1153.76 1370.77 Q1153.76 1363.64 1151.93 1360.1 Q1150.12 1356.53 1146.49 1356.53 M1146.49 1352.83 Q1152.3 1352.83 1155.36 1357.43 Q1158.43 1362.02 1158.43 1370.77 Q1158.43 1379.49 1155.36 1384.1 Q1152.3 1388.68 1146.49 1388.68 Q1140.68 1388.68 1137.6 1384.1 Q1134.55 1379.49 1134.55 1370.77 Q1134.55 1362.02 1137.6 1357.43 Q1140.68 1352.83 1146.49 1352.83 Z" fill="#000000" fill-rule="nonzero" fill-opacity="1" /><path clip-path="url(#clip610)" d="M1268.49 1429.73 L1284.81 1429.73 L1284.81 1433.66 L1262.87 1433.66 L1262.87 1429.73 Q1265.53 1426.97 1270.11 1422.34 Q1274.72 1417.69 1275.9 1416.35 Q1278.15 1413.82 1279.02 1412.09 Q1279.93 1410.33 1279.93 1408.64 Q1279.93 1405.88 1277.98 1404.15 Q1276.06 1402.41 1272.96 1402.41 Q1270.76 1402.41 1268.31 1403.18 Q1265.88 1403.94 1263.1 1405.49 L1263.1 1400.77 Q1265.92 1399.63 1268.38 1399.06 Q1270.83 1398.48 1272.87 1398.48 Q1278.24 1398.48 1281.43 1401.16 Q1284.63 1403.85 1284.63 1408.34 Q1284.63 1410.47 1283.82 1412.39 Q1283.03 1414.29 1280.92 1416.88 Q1280.34 1417.55 1277.24 1420.77 Q1274.14 1423.96 1268.49 1429.73 Z" fill="#000000" fill-rule="nonzero" fill-opacity="1" /><path clip-path="url(#clip610)" d="M1304.63 1402.18 Q1301.02 1402.18 1299.19 1405.75 Q1297.38 1409.29 1297.38 1416.42 Q1297.38 1423.52 1299.19 1427.09 Q1301.02 1430.63 1304.63 1430.63 Q1308.26 1430.63 1310.07 1427.09 Q1311.9 1423.52 1311.9 1416.42 Q1311.9 1409.29 1310.07 1405.75 Q1308.26 1402.18 1304.63 1402.18 M1304.63 1398.48 Q1310.44 1398.48 1313.49 1403.08 Q1316.57 1407.67 1316.57 1416.42 Q1316.57 1425.14 1313.49 1429.75 Q1310.44 1434.33 1304.63 1434.33 Q1298.82 1434.33 1295.74 1429.75 Q1292.68 1425.14 1292.68 1416.42 Q1292.68 1407.67 1295.74 1403.08 Q1298.82 1398.48 1304.63 1398.48 Z" fill="#000000" fill-rule="nonzero" fill-opacity="1" /><polyline clip-path="url(#clip612)" style="stroke:#000000; stroke-linecap:round; stroke-linejoin:round; stroke-width:2; stroke-opacity:0.1; fill:none" points="1415.25,1396.66 695.652,1188.93 695.652,469.328 "/>
<polyline clip-path="url(#clip612)" style="stroke:#000000; stroke-linecap:round; stroke-linejoin:round; stroke-width:2; stroke-opacity:0.1; fill:none" points="1478.7,1341.71 759.099,1133.98 759.099,414.381 "/>
<polyline clip-path="url(#clip612)" style="stroke:#000000; stroke-linecap:round; stroke-linejoin:round; stroke-width:2; stroke-opacity:0.1; fill:none" points="1542.15,1286.77 822.546,1079.04 822.546,359.435 "/>
<polyline clip-path="url(#clip612)" style="stroke:#000000; stroke-linecap:round; stroke-linejoin:round; stroke-width:2; stroke-opacity:0.1; fill:none" points="1605.59,1231.82 885.993,1024.09 885.993,304.488 "/>
<polyline clip-path="url(#clip612)" style="stroke:#000000; stroke-linecap:round; stroke-linejoin:round; stroke-width:2; stroke-opacity:0.1; fill:none" points="1669.04,1176.87 949.44,969.143 949.44,249.541 "/>
<polyline clip-path="url(#clip612)" style="stroke:#000000; stroke-linecap:round; stroke-linejoin:round; stroke-width:2; stroke-opacity:0.1; fill:none" points="1732.49,1121.93 1012.89,914.196 1012.89,194.594 "/>
<polyline clip-path="url(#clip612)" style="stroke:#000000; stroke-linecap:round; stroke-linejoin:round; stroke-width:2; stroke-opacity:0.1; fill:none" points="1795.94,1066.98 1076.33,859.249 1076.33,139.648 "/>
<polyline clip-path="url(#clip610)" style="stroke:#000000; stroke-linecap:round; stroke-linejoin:round; stroke-width:4; stroke-opacity:1; fill:none" points="1399.37,1410.41 1814.84,1050.61 "/>
<polyline clip-path="url(#clip610)" style="stroke:#000000; stroke-linecap:round; stroke-linejoin:round; stroke-width:4; stroke-opacity:1; fill:none" points="1415.25,1396.66 1406.62,1394.17 "/>
<polyline clip-path="url(#clip610)" style="stroke:#000000; stroke-linecap:round; stroke-linejoin:round; stroke-width:4; stroke-opacity:1; fill:none" points="1478.7,1341.71 1470.07,1339.22 "/>
<polyline clip-path="url(#clip610)" style="stroke:#000000; stroke-linecap:round; stroke-linejoin:round; stroke-width:4; stroke-opacity:1; fill:none" points="1542.15,1286.77 1533.51,1284.27 "/>
<polyline clip-path="url(#clip610)" style="stroke:#000000; stroke-linecap:round; stroke-linejoin:round; stroke-width:4; stroke-opacity:1; fill:none" points="1605.59,1231.82 1596.96,1229.33 "/>
<polyline clip-path="url(#clip610)" style="stroke:#000000; stroke-linecap:round; stroke-linejoin:round; stroke-width:4; stroke-opacity:1; fill:none" points="1669.04,1176.87 1660.41,1174.38 "/>
<polyline clip-path="url(#clip610)" style="stroke:#000000; stroke-linecap:round; stroke-linejoin:round; stroke-width:4; stroke-opacity:1; fill:none" points="1732.49,1121.93 1723.85,1119.43 "/>
<polyline clip-path="url(#clip610)" style="stroke:#000000; stroke-linecap:round; stroke-linejoin:round; stroke-width:4; stroke-opacity:1; fill:none" points="1795.94,1066.98 1787.3,1064.49 "/>
<path clip-path="url(#clip610)" d="M1430.1 1421.79 L1459.78 1421.79 L1459.78 1425.72 L1430.1 1425.72 L1430.1 1421.79 Z" fill="#000000" fill-rule="nonzero" fill-opacity="1" /><path clip-path="url(#clip610)" d="M1484.04 1419.98 Q1487.4 1420.7 1489.27 1422.97 Q1491.17 1425.24 1491.17 1428.57 Q1491.17 1433.69 1487.65 1436.49 Q1484.13 1439.29 1477.65 1439.29 Q1475.47 1439.29 1473.16 1438.85 Q1470.87 1438.43 1468.41 1437.58 L1468.41 1433.06 Q1470.36 1434.2 1472.67 1434.77 Q1474.99 1435.35 1477.51 1435.35 Q1481.91 1435.35 1484.2 1433.62 Q1486.52 1431.88 1486.52 1428.57 Q1486.52 1425.52 1484.36 1423.8 Q1482.23 1422.07 1478.41 1422.07 L1474.39 1422.07 L1474.39 1418.22 L1478.6 1418.22 Q1482.05 1418.22 1483.88 1416.86 Q1485.71 1415.47 1485.71 1412.88 Q1485.71 1410.21 1483.81 1408.8 Q1481.93 1407.37 1478.41 1407.37 Q1476.49 1407.37 1474.29 1407.78 Q1472.09 1408.2 1469.46 1409.08 L1469.46 1404.91 Q1472.12 1404.17 1474.43 1403.8 Q1476.77 1403.43 1478.83 1403.43 Q1484.15 1403.43 1487.26 1405.86 Q1490.36 1408.27 1490.36 1412.39 Q1490.36 1415.26 1488.71 1417.25 Q1487.07 1419.22 1484.04 1419.98 Z" fill="#000000" fill-rule="nonzero" fill-opacity="1" /><path clip-path="url(#clip610)" d="M1510.03 1407.14 Q1506.42 1407.14 1504.59 1410.7 Q1502.79 1414.24 1502.79 1421.37 Q1502.79 1428.48 1504.59 1432.04 Q1506.42 1435.58 1510.03 1435.58 Q1513.67 1435.58 1515.47 1432.04 Q1517.3 1428.48 1517.3 1421.37 Q1517.3 1414.24 1515.47 1410.7 Q1513.67 1407.14 1510.03 1407.14 M1510.03 1403.43 Q1515.84 1403.43 1518.9 1408.04 Q1521.98 1412.62 1521.98 1421.37 Q1521.98 1430.1 1518.9 1434.7 Q1515.84 1439.29 1510.03 1439.29 Q1504.22 1439.29 1501.15 1434.7 Q1498.09 1430.1 1498.09 1421.37 Q1498.09 1412.62 1501.15 1408.04 Q1504.22 1403.43 1510.03 1403.43 Z" fill="#000000" fill-rule="nonzero" fill-opacity="1" /><path clip-path="url(#clip610)" d="M1493.55 1366.84 L1523.23 1366.84 L1523.23 1370.78 L1493.55 1370.78 L1493.55 1366.84 Z" fill="#000000" fill-rule="nonzero" fill-opacity="1" /><path clip-path="url(#clip610)" d="M1537.35 1379.74 L1553.67 1379.74 L1553.67 1383.67 L1531.72 1383.67 L1531.72 1379.74 Q1534.38 1376.98 1538.97 1372.35 Q1543.57 1367.7 1544.75 1366.36 Q1547 1363.83 1547.88 1362.1 Q1548.78 1360.34 1548.78 1358.65 Q1548.78 1355.89 1546.84 1354.16 Q1544.92 1352.42 1541.81 1352.42 Q1539.62 1352.42 1537.16 1353.18 Q1534.73 1353.95 1531.95 1355.5 L1531.95 1350.78 Q1534.78 1349.64 1537.23 1349.06 Q1539.69 1348.49 1541.72 1348.49 Q1547.09 1348.49 1550.29 1351.17 Q1553.48 1353.86 1553.48 1358.35 Q1553.48 1360.48 1552.67 1362.4 Q1551.88 1364.3 1549.78 1366.89 Q1549.2 1367.56 1546.1 1370.78 Q1543 1373.97 1537.35 1379.74 Z" fill="#000000" fill-rule="nonzero" fill-opacity="1" /><path clip-path="url(#clip610)" d="M1573.48 1352.19 Q1569.87 1352.19 1568.04 1355.75 Q1566.24 1359.3 1566.24 1366.42 Q1566.24 1373.53 1568.04 1377.1 Q1569.87 1380.64 1573.48 1380.64 Q1577.12 1380.64 1578.92 1377.1 Q1580.75 1373.53 1580.75 1366.42 Q1580.75 1359.3 1578.92 1355.75 Q1577.12 1352.19 1573.48 1352.19 M1573.48 1348.49 Q1579.29 1348.49 1582.35 1353.09 Q1585.43 1357.67 1585.43 1366.42 Q1585.43 1375.15 1582.35 1379.76 Q1579.29 1384.34 1573.48 1384.34 Q1567.67 1384.34 1564.59 1379.76 Q1561.54 1375.15 1561.54 1366.42 Q1561.54 1357.67 1564.59 1353.09 Q1567.67 1348.49 1573.48 1348.49 Z" fill="#000000" fill-rule="nonzero" fill-opacity="1" /><path clip-path="url(#clip610)" d="M1557 1311.89 L1586.67 1311.89 L1586.67 1315.83 L1557 1315.83 L1557 1311.89 Z" fill="#000000" fill-rule="nonzero" fill-opacity="1" /><path clip-path="url(#clip610)" d="M1597.58 1324.79 L1605.22 1324.79 L1605.22 1298.42 L1596.91 1300.09 L1596.91 1295.83 L1605.17 1294.16 L1609.85 1294.16 L1609.85 1324.79 L1617.48 1324.79 L1617.48 1328.72 L1597.58 1328.72 L1597.58 1324.79 Z" fill="#000000" fill-rule="nonzero" fill-opacity="1" /><path clip-path="url(#clip610)" d="M1636.93 1297.24 Q1633.32 1297.24 1631.49 1300.81 Q1629.68 1304.35 1629.68 1311.48 Q1629.68 1318.58 1631.49 1322.15 Q1633.32 1325.69 1636.93 1325.69 Q1640.56 1325.69 1642.37 1322.15 Q1644.2 1318.58 1644.2 1311.48 Q1644.2 1304.35 1642.37 1300.81 Q1640.56 1297.24 1636.93 1297.24 M1636.93 1293.54 Q1642.74 1293.54 1645.79 1298.14 Q1648.87 1302.73 1648.87 1311.48 Q1648.87 1320.21 1645.79 1324.81 Q1642.74 1329.39 1636.93 1329.39 Q1631.12 1329.39 1628.04 1324.81 Q1624.98 1320.21 1624.98 1311.48 Q1624.98 1302.73 1628.04 1298.14 Q1631.12 1293.54 1636.93 1293.54 Z" fill="#000000" fill-rule="nonzero" fill-opacity="1" /><path clip-path="url(#clip610)" d="M1632.39 1242.3 Q1628.78 1242.3 1626.95 1245.86 Q1625.14 1249.4 1625.14 1256.53 Q1625.14 1263.64 1626.95 1267.2 Q1628.78 1270.74 1632.39 1270.74 Q1636.02 1270.74 1637.83 1267.2 Q1639.66 1263.64 1639.66 1256.53 Q1639.66 1249.4 1637.83 1245.86 Q1636.02 1242.3 1632.39 1242.3 M1632.39 1238.59 Q1638.2 1238.59 1641.26 1243.2 Q1644.33 1247.78 1644.33 1256.53 Q1644.33 1265.26 1641.26 1269.86 Q1638.2 1274.45 1632.39 1274.45 Q1626.58 1274.45 1623.5 1269.86 Q1620.45 1265.26 1620.45 1256.53 Q1620.45 1247.78 1623.5 1243.2 Q1626.58 1238.59 1632.39 1238.59 Z" fill="#000000" fill-rule="nonzero" fill-opacity="1" /><path clip-path="url(#clip610)" d="M1684.56 1214.89 L1692.2 1214.89 L1692.2 1188.53 L1683.89 1190.2 L1683.89 1185.94 L1692.16 1184.27 L1696.83 1184.27 L1696.83 1214.89 L1704.47 1214.89 L1704.47 1218.83 L1684.56 1218.83 L1684.56 1214.89 Z" fill="#000000" fill-rule="nonzero" fill-opacity="1" /><path clip-path="url(#clip610)" d="M1723.92 1187.35 Q1720.3 1187.35 1718.48 1190.91 Q1716.67 1194.46 1716.67 1201.58 Q1716.67 1208.69 1718.48 1212.26 Q1720.3 1215.8 1723.92 1215.8 Q1727.55 1215.8 1729.35 1212.26 Q1731.18 1208.69 1731.18 1201.58 Q1731.18 1194.46 1729.35 1190.91 Q1727.55 1187.35 1723.92 1187.35 M1723.92 1183.65 Q1729.73 1183.65 1732.78 1188.25 Q1735.86 1192.83 1735.86 1201.58 Q1735.86 1210.31 1732.78 1214.92 Q1729.73 1219.5 1723.92 1219.5 Q1718.1 1219.5 1715.03 1214.92 Q1711.97 1210.31 1711.97 1201.58 Q1711.97 1192.83 1715.03 1188.25 Q1718.1 1183.65 1723.92 1183.65 Z" fill="#000000" fill-rule="nonzero" fill-opacity="1" /><path clip-path="url(#clip610)" d="M1752.96 1159.95 L1769.28 1159.95 L1769.28 1163.88 L1747.34 1163.88 L1747.34 1159.95 Q1750 1157.19 1754.58 1152.56 Q1759.19 1147.91 1760.37 1146.57 Q1762.62 1144.05 1763.5 1142.31 Q1764.4 1140.55 1764.4 1138.86 Q1764.4 1136.11 1762.45 1134.37 Q1760.53 1132.63 1757.43 1132.63 Q1755.23 1132.63 1752.78 1133.4 Q1750.35 1134.16 1747.57 1135.71 L1747.57 1130.99 Q1750.39 1129.86 1752.85 1129.28 Q1755.3 1128.7 1757.34 1128.7 Q1762.71 1128.7 1765.9 1131.38 Q1769.1 1134.07 1769.1 1138.56 Q1769.1 1140.69 1768.29 1142.61 Q1767.5 1144.51 1765.39 1147.1 Q1764.82 1147.77 1761.71 1150.99 Q1758.61 1154.18 1752.96 1159.95 Z" fill="#000000" fill-rule="nonzero" fill-opacity="1" /><path clip-path="url(#clip610)" d="M1789.1 1132.4 Q1785.49 1132.4 1783.66 1135.97 Q1781.85 1139.51 1781.85 1146.64 Q1781.85 1153.74 1783.66 1157.31 Q1785.49 1160.85 1789.1 1160.85 Q1792.73 1160.85 1794.54 1157.31 Q1796.37 1153.74 1796.37 1146.64 Q1796.37 1139.51 1794.54 1135.97 Q1792.73 1132.4 1789.1 1132.4 M1789.1 1128.7 Q1794.91 1128.7 1797.96 1133.3 Q1801.04 1137.89 1801.04 1146.64 Q1801.04 1155.36 1797.96 1159.97 Q1794.91 1164.55 1789.1 1164.55 Q1783.29 1164.55 1780.21 1159.97 Q1777.15 1155.36 1777.15 1146.64 Q1777.15 1137.89 1780.21 1133.3 Q1783.29 1128.7 1789.1 1128.7 Z" fill="#000000" fill-rule="nonzero" fill-opacity="1" /><path clip-path="url(#clip610)" d="M1826.41 1090.3 Q1829.77 1091.02 1831.64 1093.29 Q1833.54 1095.56 1833.54 1098.89 Q1833.54 1104.01 1830.02 1106.81 Q1826.5 1109.61 1820.02 1109.61 Q1817.85 1109.61 1815.53 1109.17 Q1813.24 1108.75 1810.79 1107.89 L1810.79 1103.38 Q1812.73 1104.52 1815.05 1105.09 Q1817.36 1105.67 1819.88 1105.67 Q1824.28 1105.67 1826.57 1103.94 Q1828.89 1102.2 1828.89 1098.89 Q1828.89 1095.83 1826.74 1094.12 Q1824.61 1092.39 1820.79 1092.39 L1816.76 1092.39 L1816.76 1088.54 L1820.97 1088.54 Q1824.42 1088.54 1826.25 1087.18 Q1828.08 1085.79 1828.08 1083.2 Q1828.08 1080.53 1826.18 1079.12 Q1824.3 1077.69 1820.79 1077.69 Q1818.86 1077.69 1816.67 1078.1 Q1814.47 1078.52 1811.83 1079.4 L1811.83 1075.23 Q1814.49 1074.49 1816.8 1074.12 Q1819.14 1073.75 1821.2 1073.75 Q1826.53 1073.75 1829.63 1076.18 Q1832.73 1078.59 1832.73 1082.71 Q1832.73 1085.58 1831.09 1087.57 Q1829.44 1089.54 1826.41 1090.3 Z" fill="#000000" fill-rule="nonzero" fill-opacity="1" /><path clip-path="url(#clip610)" d="M1852.41 1077.46 Q1848.8 1077.46 1846.97 1081.02 Q1845.16 1084.56 1845.16 1091.69 Q1845.16 1098.8 1846.97 1102.36 Q1848.8 1105.9 1852.41 1105.9 Q1856.04 1105.9 1857.85 1102.36 Q1859.67 1098.8 1859.67 1091.69 Q1859.67 1084.56 1857.85 1081.02 Q1856.04 1077.46 1852.41 1077.46 M1852.41 1073.75 Q1858.22 1073.75 1861.27 1078.36 Q1864.35 1082.94 1864.35 1091.69 Q1864.35 1100.42 1861.27 1105.02 Q1858.22 1109.61 1852.41 1109.61 Q1846.6 1109.61 1843.52 1105.02 Q1840.46 1100.42 1840.46 1091.69 Q1840.46 1082.94 1843.52 1078.36 Q1846.6 1073.75 1852.41 1073.75 Z" fill="#000000" fill-rule="nonzero" fill-opacity="1" /><polyline clip-path="url(#clip612)" style="stroke:#000000; stroke-linecap:round; stroke-linejoin:round; stroke-width:2; stroke-opacity:0.1; fill:none" points="679.772,1182.32 1095.23,822.515 1814.84,1030.25 "/>
<polyline clip-path="url(#clip612)" style="stroke:#000000; stroke-linecap:round; stroke-linejoin:round; stroke-width:2; stroke-opacity:0.1; fill:none" points="679.772,1073.33 1095.23,713.525 1814.84,921.256 "/>
<polyline clip-path="url(#clip612)" style="stroke:#000000; stroke-linecap:round; stroke-linejoin:round; stroke-width:2; stroke-opacity:0.1; fill:none" points="679.772,964.336 1095.23,604.535 1814.84,812.266 "/>
<polyline clip-path="url(#clip612)" style="stroke:#000000; stroke-linecap:round; stroke-linejoin:round; stroke-width:2; stroke-opacity:0.1; fill:none" points="679.772,855.346 1095.23,495.545 1814.84,703.276 "/>
<polyline clip-path="url(#clip612)" style="stroke:#000000; stroke-linecap:round; stroke-linejoin:round; stroke-width:2; stroke-opacity:0.1; fill:none" points="679.772,746.356 1095.23,386.555 1814.84,594.287 "/>
<polyline clip-path="url(#clip612)" style="stroke:#000000; stroke-linecap:round; stroke-linejoin:round; stroke-width:2; stroke-opacity:0.1; fill:none" points="679.772,637.367 1095.23,277.566 1814.84,485.297 "/>
<polyline clip-path="url(#clip612)" style="stroke:#000000; stroke-linecap:round; stroke-linejoin:round; stroke-width:2; stroke-opacity:0.1; fill:none" points="679.772,528.377 1095.23,168.576 1814.84,376.307 "/>
<polyline clip-path="url(#clip610)" style="stroke:#000000; stroke-linecap:round; stroke-linejoin:round; stroke-width:4; stroke-opacity:1; fill:none" points="679.772,1202.68 679.772,483.08 "/>
<polyline clip-path="url(#clip610)" style="stroke:#000000; stroke-linecap:round; stroke-linejoin:round; stroke-width:4; stroke-opacity:1; fill:none" points="679.772,1182.32 684.758,1178 "/>
<polyline clip-path="url(#clip610)" style="stroke:#000000; stroke-linecap:round; stroke-linejoin:round; stroke-width:4; stroke-opacity:1; fill:none" points="679.772,1073.33 684.758,1069.01 "/>
<polyline clip-path="url(#clip610)" style="stroke:#000000; stroke-linecap:round; stroke-linejoin:round; stroke-width:4; stroke-opacity:1; fill:none" points="679.772,964.336 684.758,960.018 "/>
<polyline clip-path="url(#clip610)" style="stroke:#000000; stroke-linecap:round; stroke-linejoin:round; stroke-width:4; stroke-opacity:1; fill:none" points="679.772,855.346 684.758,851.029 "/>
<polyline clip-path="url(#clip610)" style="stroke:#000000; stroke-linecap:round; stroke-linejoin:round; stroke-width:4; stroke-opacity:1; fill:none" points="679.772,746.356 684.758,742.039 "/>
<polyline clip-path="url(#clip610)" style="stroke:#000000; stroke-linecap:round; stroke-linejoin:round; stroke-width:4; stroke-opacity:1; fill:none" points="679.772,637.367 684.758,633.049 "/>
<polyline clip-path="url(#clip610)" style="stroke:#000000; stroke-linecap:round; stroke-linejoin:round; stroke-width:4; stroke-opacity:1; fill:none" points="679.772,528.377 684.758,524.059 "/>
<path clip-path="url(#clip610)" d="M639.028 1168.11 Q635.417 1168.11 633.588 1171.68 Q631.783 1175.22 631.783 1182.35 Q631.783 1189.46 633.588 1193.02 Q635.417 1196.56 639.028 1196.56 Q642.662 1196.56 644.468 1193.02 Q646.296 1189.46 646.296 1182.35 Q646.296 1175.22 644.468 1171.68 Q642.662 1168.11 639.028 1168.11 M639.028 1164.41 Q644.838 1164.41 647.894 1169.02 Q650.972 1173.6 650.972 1182.35 Q650.972 1191.08 647.894 1195.68 Q644.838 1200.27 639.028 1200.27 Q633.218 1200.27 630.139 1195.68 Q627.084 1191.08 627.084 1182.35 Q627.084 1173.6 630.139 1169.02 Q633.218 1164.41 639.028 1164.41 Z" fill="#000000" fill-rule="nonzero" fill-opacity="1" /><path clip-path="url(#clip610)" d="M599.676 1086.67 L607.315 1086.67 L607.315 1060.31 L599.005 1061.97 L599.005 1057.71 L607.269 1056.05 L611.945 1056.05 L611.945 1086.67 L619.584 1086.67 L619.584 1090.61 L599.676 1090.61 L599.676 1086.67 Z" fill="#000000" fill-rule="nonzero" fill-opacity="1" /><path clip-path="url(#clip610)" d="M639.028 1059.12 Q635.417 1059.12 633.588 1062.69 Q631.783 1066.23 631.783 1073.36 Q631.783 1080.47 633.588 1084.03 Q635.417 1087.57 639.028 1087.57 Q642.662 1087.57 644.468 1084.03 Q646.296 1080.47 646.296 1073.36 Q646.296 1066.23 644.468 1062.69 Q642.662 1059.12 639.028 1059.12 M639.028 1055.42 Q644.838 1055.42 647.894 1060.03 Q650.972 1064.61 650.972 1073.36 Q650.972 1082.09 647.894 1086.69 Q644.838 1091.28 639.028 1091.28 Q633.218 1091.28 630.139 1086.69 Q627.084 1082.09 627.084 1073.36 Q627.084 1064.61 630.139 1060.03 Q633.218 1055.42 639.028 1055.42 Z" fill="#000000" fill-rule="nonzero" fill-opacity="1" /><path clip-path="url(#clip610)" d="M602.894 977.681 L619.213 977.681 L619.213 981.616 L597.269 981.616 L597.269 977.681 Q599.931 974.926 604.514 970.297 Q609.121 965.644 610.301 964.301 Q612.547 961.778 613.426 960.042 Q614.329 958.283 614.329 956.593 Q614.329 953.838 612.385 952.102 Q610.463 950.366 607.361 950.366 Q605.162 950.366 602.709 951.13 Q600.278 951.894 597.5 953.445 L597.5 948.723 Q600.324 947.588 602.778 947.01 Q605.232 946.431 607.269 946.431 Q612.639 946.431 615.834 949.116 Q619.028 951.801 619.028 956.292 Q619.028 958.422 618.218 960.343 Q617.431 962.241 615.324 964.834 Q614.746 965.505 611.644 968.723 Q608.542 971.917 602.894 977.681 Z" fill="#000000" fill-rule="nonzero" fill-opacity="1" /><path clip-path="url(#clip610)" d="M639.028 950.135 Q635.417 950.135 633.588 953.7 Q631.783 957.241 631.783 964.371 Q631.783 971.477 633.588 975.042 Q635.417 978.584 639.028 978.584 Q642.662 978.584 644.468 975.042 Q646.296 971.477 646.296 964.371 Q646.296 957.241 644.468 953.7 Q642.662 950.135 639.028 950.135 M639.028 946.431 Q644.838 946.431 647.894 951.037 Q650.972 955.621 650.972 964.371 Q650.972 973.098 647.894 977.704 Q644.838 982.287 639.028 982.287 Q633.218 982.287 630.139 977.704 Q627.084 973.098 627.084 964.371 Q627.084 955.621 630.139 951.037 Q633.218 946.431 639.028 946.431 Z" fill="#000000" fill-rule="nonzero" fill-opacity="1" /><path clip-path="url(#clip610)" d="M613.033 853.992 Q616.389 854.71 618.264 856.978 Q620.162 859.247 620.162 862.58 Q620.162 867.696 616.644 870.497 Q613.125 873.297 606.644 873.297 Q604.468 873.297 602.153 872.858 Q599.861 872.441 597.408 871.585 L597.408 867.071 Q599.352 868.205 601.667 868.784 Q603.982 869.362 606.505 869.362 Q610.903 869.362 613.195 867.626 Q615.51 865.89 615.51 862.58 Q615.51 859.524 613.357 857.811 Q611.227 856.075 607.408 856.075 L603.38 856.075 L603.38 852.233 L607.593 852.233 Q611.042 852.233 612.871 850.867 Q614.699 849.478 614.699 846.886 Q614.699 844.224 612.801 842.812 Q610.926 841.376 607.408 841.376 Q605.486 841.376 603.287 841.793 Q601.088 842.21 598.449 843.089 L598.449 838.923 Q601.111 838.182 603.426 837.812 Q605.764 837.441 607.824 837.441 Q613.148 837.441 616.25 839.872 Q619.352 842.279 619.352 846.399 Q619.352 849.27 617.709 851.261 Q616.065 853.228 613.033 853.992 Z" fill="#000000" fill-rule="nonzero" fill-opacity="1" /><path clip-path="url(#clip610)" d="M639.028 841.145 Q635.417 841.145 633.588 844.71 Q631.783 848.251 631.783 855.381 Q631.783 862.487 633.588 866.052 Q635.417 869.594 639.028 869.594 Q642.662 869.594 644.468 866.052 Q646.296 862.487 646.296 855.381 Q646.296 848.251 644.468 844.71 Q642.662 841.145 639.028 841.145 M639.028 837.441 Q644.838 837.441 647.894 842.048 Q650.972 846.631 650.972 855.381 Q650.972 864.108 647.894 868.714 Q644.838 873.297 639.028 873.297 Q633.218 873.297 630.139 868.714 Q627.084 864.108 627.084 855.381 Q627.084 846.631 630.139 842.048 Q633.218 837.441 639.028 837.441 Z" fill="#000000" fill-rule="nonzero" fill-opacity="1" /><path clip-path="url(#clip610)" d="M611.713 733.15 L599.908 751.599 L611.713 751.599 L611.713 733.15 M610.486 729.076 L616.366 729.076 L616.366 751.599 L621.297 751.599 L621.297 755.488 L616.366 755.488 L616.366 763.636 L611.713 763.636 L611.713 755.488 L596.111 755.488 L596.111 750.974 L610.486 729.076 Z" fill="#000000" fill-rule="nonzero" fill-opacity="1" /><path clip-path="url(#clip610)" d="M639.028 732.155 Q635.417 732.155 633.588 735.72 Q631.783 739.261 631.783 746.391 Q631.783 753.498 633.588 757.062 Q635.417 760.604 639.028 760.604 Q642.662 760.604 644.468 757.062 Q646.296 753.498 646.296 746.391 Q646.296 739.261 644.468 735.72 Q642.662 732.155 639.028 732.155 M639.028 728.451 Q644.838 728.451 647.894 733.058 Q650.972 737.641 650.972 746.391 Q650.972 755.118 647.894 759.724 Q644.838 764.308 639.028 764.308 Q633.218 764.308 630.139 759.724 Q627.084 755.118 627.084 746.391 Q627.084 737.641 630.139 733.058 Q633.218 728.451 639.028 728.451 Z" fill="#000000" fill-rule="nonzero" fill-opacity="1" /><path clip-path="url(#clip610)" d="M598.912 620.087 L617.269 620.087 L617.269 624.022 L603.195 624.022 L603.195 632.494 Q604.213 632.147 605.232 631.985 Q606.25 631.799 607.269 631.799 Q613.056 631.799 616.435 634.971 Q619.815 638.142 619.815 643.559 Q619.815 649.137 616.343 652.239 Q612.871 655.318 606.551 655.318 Q604.375 655.318 602.107 654.947 Q599.861 654.577 597.454 653.836 L597.454 649.137 Q599.537 650.272 601.76 650.827 Q603.982 651.383 606.459 651.383 Q610.463 651.383 612.801 649.276 Q615.139 647.17 615.139 643.559 Q615.139 639.948 612.801 637.841 Q610.463 635.735 606.459 635.735 Q604.584 635.735 602.709 636.151 Q600.857 636.568 598.912 637.448 L598.912 620.087 Z" fill="#000000" fill-rule="nonzero" fill-opacity="1" /><path clip-path="url(#clip610)" d="M639.028 623.165 Q635.417 623.165 633.588 626.73 Q631.783 630.272 631.783 637.401 Q631.783 644.508 633.588 648.072 Q635.417 651.614 639.028 651.614 Q642.662 651.614 644.468 648.072 Q646.296 644.508 646.296 637.401 Q646.296 630.272 644.468 626.73 Q642.662 623.165 639.028 623.165 M639.028 619.462 Q644.838 619.462 647.894 624.068 Q650.972 628.651 650.972 637.401 Q650.972 646.128 647.894 650.734 Q644.838 655.318 639.028 655.318 Q633.218 655.318 630.139 650.734 Q627.084 646.128 627.084 637.401 Q627.084 628.651 630.139 624.068 Q633.218 619.462 639.028 619.462 Z" fill="#000000" fill-rule="nonzero" fill-opacity="1" /><path clip-path="url(#clip610)" d="M609.445 526.513 Q606.297 526.513 604.445 528.666 Q602.616 530.819 602.616 534.569 Q602.616 538.296 604.445 540.472 Q606.297 542.624 609.445 542.624 Q612.593 542.624 614.422 540.472 Q616.273 538.296 616.273 534.569 Q616.273 530.819 614.422 528.666 Q612.593 526.513 609.445 526.513 M618.727 511.861 L618.727 516.12 Q616.968 515.286 615.162 514.847 Q613.38 514.407 611.621 514.407 Q606.991 514.407 604.537 517.532 Q602.107 520.657 601.76 526.976 Q603.125 524.962 605.186 523.898 Q607.246 522.81 609.723 522.81 Q614.931 522.81 617.94 525.981 Q620.972 529.129 620.972 534.569 Q620.972 539.893 617.824 543.11 Q614.676 546.328 609.445 546.328 Q603.449 546.328 600.278 541.745 Q597.107 537.138 597.107 528.411 Q597.107 520.217 600.996 515.356 Q604.885 510.472 611.435 510.472 Q613.195 510.472 614.977 510.819 Q616.783 511.166 618.727 511.861 Z" fill="#000000" fill-rule="nonzero" fill-opacity="1" /><path clip-path="url(#clip610)" d="M639.028 514.175 Q635.417 514.175 633.588 517.74 Q631.783 521.282 631.783 528.411 Q631.783 535.518 633.588 539.083 Q635.417 542.624 639.028 542.624 Q642.662 542.624 644.468 539.083 Q646.296 535.518 646.296 528.411 Q646.296 521.282 644.468 517.74 Q642.662 514.175 639.028 514.175 M639.028 510.472 Q644.838 510.472 647.894 515.078 Q650.972 519.661 650.972 528.411 Q650.972 537.138 647.894 541.745 Q644.838 546.328 639.028 546.328 Q633.218 546.328 630.139 541.745 Q627.084 537.138 627.084 528.411 Q627.084 519.661 630.139 515.078 Q633.218 510.472 639.028 510.472 Z" fill="#000000" fill-rule="nonzero" fill-opacity="1" /><polyline clip-path="url(#clip612)" style="stroke:#009af9; stroke-linecap:round; stroke-linejoin:round; stroke-width:4; stroke-opacity:1; fill:none" points="1228,1102.45 1228.39,1098.46 1230.4,1095.74 1233.72,1093.61 1238.27,1091.61 1244.14,1089.47 1251.53,1086.93 1260.73,1083.77 1272.12,1079.72 1286.19,1074.43 1303.51,1067.44 1324.78,1058.12 1350.79,1045.59 1382.41,1028.66 1420.49,1005.68 1465.69,974.552 1518.11,932.689 1576.66,877.327 1638.02,806.383 1695.19,720.358 1735.99,625.662 1742.99,538.738 1697.46,487.349 1589.79,501.201 1432.53,587.247 1260.54,708.166 1108.95,802.72 991.602,837.016 906.02,816.69 848.591,758.903 820.479,677.283 826.031,585.335 868.325,501.408 944.064,446.929 1041.16,436.69 1142.37,468.183 1233.15,522.349 1306.59,577.244 1362.13,620.163 1401.81,648.669 1427.79,665.753 1441.77,675.856 1445.02,683.072 1438.84,690.507 1424.82,700.054 1404.96,712.376 1381.54,727.112 1356.86,743.292 1332.9,759.819 1311.09,775.846 1292.27,790.923 1276.76,804.958 1264.49,818.071 1255.16,830.453 1248.37,842.278 1243.7,853.663 1240.75,864.662 1239.2,875.283 1238.8,885.502 1239.35,895.279 1240.74,904.568 1242.89,913.32 1245.8,921.487 1249.49,929.017 1254.02,935.856 1259.5,941.935 1266.07,947.171 1273.89,951.456 1283.17,954.649 1294.18,956.56 1307.2,956.942 1322.55,955.465 1340.6,951.702 1361.7,945.101 1386.19,934.968 1414.3,920.459 1446.02,900.607 1480.96,874.415 1518.02,841.071 1555.06,800.365 1588.53,753.357 1613.18,703.269 1622.42,656.27 1609.51,621.367 1570.1,608.227 1505.3,622.491 1423.08,660.783 1335.86,710.379 1255.16,756.012 1187.48,788.319 1134.13,806.167 1093.53,813.016 1063.32,812.917 1041.32,808.849 1025.84,802.677 1015.66,795.559 1009.88,788.296 1007.81,781.52 1008.86,775.772 1012.51,771.505 1018.18,769.057 1025.31,768.627 1033.33,770.257 1041.67,773.84 1049.84,779.147 1057.4,785.866 1064.02,793.647 1069.45,802.14 1073.52,811.017 1076.15,819.988 1077.29,828.807 1076.94,837.265 1075.12,845.183 1071.87,852.398 1067.21,858.76 1061.2,864.112 1053.89,868.291 1045.36,871.114 1035.72,872.377 1025.11,871.858 1013.76,869.32 1001.97,864.526 990.142,857.274 978.809,847.43 968.622,834.993 960.339,820.163 954.77,803.412 952.7,785.538 954.763,767.665 961.313,751.17 972.304,737.507 987.229,727.97 1005.16,723.434 1024.87,724.181 1045.04,729.875 1064.46,739.691 1082.18,752.549 1097.56,767.343 1110.27,783.114 1120.26,799.125 1127.61,814.868 1132.53,830.027 1135.24,844.425 1135.96,857.979 1134.88,870.657 1132.13,882.454 1127.79,893.367 1121.9,903.383 1114.42,912.465 1105.28,920.538 1094.4,927.477 1081.65,933.094 1066.91,937.116 1050.07,939.167 1031.1,938.74 1010.07,935.183 987.226,927.687 963.128,915.305 938.722,897.036 915.482,871.988 895.482,839.682 881.368,800.509 876.1,756.258 882.409,710.537 901.954,668.692 934.467,636.839 977.323,620.002 1025.99,620.129 1075.31,635.251 1120.99,660.53 1160.43,690.458 1192.76,720.686 1218.36,748.676 1238.25,773.389 1253.65,794.691 1265.78,812.856 1275.7,828.274 1284.3,841.315 1292.3,852.273 1300.27,861.357 1308.68,868.691 1317.88,874.318 1328.19,878.208 1339.84,880.261 1353.04,880.312 1367.95,878.134 1384.64,873.449 1403.1,865.946 1423.16,855.312 1444.44,841.289 1466.27,823.769 1487.58,802.927 1506.85,779.394 1522.11,754.44 1531.05,730.097 1531.31,709.086 1521.07,694.432 1499.66,688.684 1468.08,692.962 1429.08,706.302 1386.53,725.832 1344.45,747.87 1305.97,769.292 1272.9,788.37 1245.8,804.743 1224.32,818.874 1207.65,831.483 1194.8,843.196 1184.8,854.434 1176.78,865.413 1170,876.206 1163.86,886.797 1157.88,897.129 1151.66,907.124 1144.88,916.699 1137.23,925.766 1128.47,934.226 1118.35,941.96 1106.6,948.81 1092.98,954.563 1077.24,958.926 1059.17,961.49 1038.59,961.698 1015.43,958.805 989.82,951.845 962.193,939.617 933.444,920.736 905.122,893.787 879.605,857.665 860.161,812.165 850.751,758.805 855.377,701.662 876.907,647.65 915.636,605.465 968.36,582.803 1028.84,582.897 1089.82,602.773 1145.41,634.932 1192.44,671.196 1230.23,705.727 1259.69,735.702 1282.34,760.456 1299.84,780.381 1313.67,796.201 1325.05,808.621 1334.97,818.212 1344.17,825.389 1353.19,830.437 1362.43,833.529 1372.15,834.759 1382.49,834.165 1393.47,831.751 1405.03,827.511 1416.99,821.464 1429.03,813.682 1440.71,804.328 1451.45,793.698 1460.57,782.255 1467.28,770.645 1470.79,759.682 1470.4,750.284 1465.65,743.358 1456.43,739.641 1443.05,739.538 1426.29,743.023 1407.27,749.638 1387.27,758.624 1367.57,769.111 1349.22,780.313 1332.98,791.647 1319.29,802.76 1308.31,813.48 1300,823.755 1294.2,833.574 1290.69,842.931 1289.25,851.798 1289.68,860.122 1291.83,867.818 1295.59,874.781 1300.93,880.881 1307.84,885.967 1316.38,889.862 1326.63,892.36 1338.7,893.215 1352.72,892.137 1368.8,888.791 1386.98,882.791 1407.26,873.721 1429.42,861.162 1453.04,844.766 1477.3,824.363 1500.93,800.141 1522.06,772.877 1538.26,744.185 1546.65,716.674 1544.39,693.835 1529.41,679.438 1501.27,676.395 1461.81,685.441 1414.96,704.433 1365.78,729.003 1318.92,754.387 1277.56,777.224 1243.08,796.233 1215.5,811.711 1193.96,824.638 1177.3,836.012 1164.28,846.554 1153.82,856.671 1144.95,866.534 1136.91,876.153 1129.09,885.452 1120.99,894.309 1112.22,902.573 1102.46,910.072 1091.42,916.608 1078.9,921.938 1064.71,925.764 1048.72,927.706 1030.89,927.287 1011.3,923.915 990.214,916.882 968.145,905.387 945.969,888.612 924.998,865.871 907.035,836.863 894.326,802.027 889.344,762.953 894.341,722.668 910.708,685.554 938.309,656.603 975.139,640.042 1017.61,637.828 1061.47,648.899 1102.94,669.755 1139.49,695.986 1170,723.761 1194.49,750.541 1213.63,775.042 1228.41,796.846 1239.88,816.002 1248.97,832.754 1256.52,847.391 1263.2,860.175 1269.56,871.315 1276.05,880.96 1283.04,889.196 1290.83,896.05 1299.7,901.49 1309.92,905.421 1321.72,907.69 1335.36,908.072 1351.06,906.27 1369.03,901.909 1389.39,894.539 1412.17,883.648 1437.19,868.704 1463.95,849.24 1491.51,825.006 1518.28,796.208 1541.9,763.841 1559.23,730.051 1566.57,698.362 1560.34,673.469 1538.19,660.257 1500.21,662.005 1449.67,678.498 1392.43,705.44 1335.06,736.155 1282.82,764.645 1238.56,787.76 1202.89,805.223 1175.01,818.326 1153.5,828.653 1136.83,837.438 1123.6,845.424 1112.62,852.963 1102.94,860.138 1093.83,866.878 1084.72,873.03 1075.21,878.388 1064.99,882.719 1053.89,885.762 1041.8,887.228 1028.73,886.795 1014.8,884.116 1000.27,878.824 985.528,870.567 971.185,859.056 958.031,844.143 947.044,825.933 939.341,804.902 936.054,782.013 938.159,758.758 946.255,737.078 960.348,719.107 979.743,706.769 1003.08,701.324 1028.57,703.064 1054.33,711.291 1078.71,724.591 1100.53,741.269 1119.12,759.738 1134.25,778.755 1146.04,797.477 1154.81,815.411 1160.92,832.319 1164.8,848.126 1166.78,862.853 1167.17,876.566 1166.17,889.349 1163.93,901.286 1160.53,912.45 1155.98,922.899 1150.24,932.67 1143.21,941.773 1134.77,950.19 1124.73,957.861 1112.87,964.675 1098.96,970.449 1082.73,974.907 1063.91,977.641 1042.27,978.072 1017.66,975.4 990.148,968.55 960.08,956.142 928.331,936.514 896.522,907.862 867.274,868.608 844.353,818.095 832.52,757.65 836.798,691.783 860.983,628.795 905.7,579.62 967.028,554.142 1037.07,556.3 1106.76,581.623 1169.13,619.86 1220.87,660.613 1261.75,697.237 1293.18,727.174 1317.08,750.393 1335.3,767.881 1349.4,780.795 1360.61,790.139 1369.84,796.691 1377.77,801.026 1384.86,803.563 1391.41,804.61 1397.58,804.402 1403.44,803.13 1408.96,800.967 1414.07,798.082 1418.62,794.653 1422.44,790.879 1425.36,786.976 1427.18,783.181 1427.76,779.734 1426.98,776.871 1424.8,774.796 1421.25,773.671 1416.46,773.593 1410.63,774.588 1404.05,776.609 1397.02,779.548 1389.88,783.253 1382.98,787.544 1376.6,792.237 1371,797.153 1366.38,802.129 1362.87,807.019 1360.57,811.691 1359.54,816.026 1359.78,819.911 1361.29,823.235 1364.05,825.89 1368.02,827.765 1373.13,828.752 1379.31,828.743 1386.46,827.639 1394.46,825.355 1403.13,821.833 1412.25,817.049 1421.51,811.04 1430.57,803.914 1438.97,795.875 1446.21,787.239 1451.74,778.437 1455.01,770.005 1455.55,762.546 1453,756.67 1447.22,752.902 1438.35,751.598 1426.79,752.876 1413.2,756.593 1398.4,762.385 1383.28,769.749 1368.67,778.151 1355.23,787.111 1343.48,796.253 1333.72,805.319 1326.09,814.142 1320.6,822.613 1317.21,830.653 1315.81,838.187 1316.28,845.13 1318.54,851.377 1322.5,856.808 1328.13,861.278 1335.39,864.622 1344.29,866.651 1354.86,867.154 1367.09,865.897 1380.96,862.624 1396.41,857.073 1413.26,848.996 1431.18,838.192 1449.67,824.574 1467.93,808.249 1484.86,789.626 1499.06,769.536 1508.85,749.314 1512.48,730.79 1508.42,716.102 1495.78,707.297 1474.67,705.756 1446.44,711.671 1413.49,723.87 1378.73,740.168 1344.98,758.137 1314.34,775.85 1288.02,792.252 1266.41,807.083 1249.29,820.56 1236.11,833.068 1226.18,844.956 1218.79,856.462 1213.32,867.71 1209.23,878.74 1206.09,889.541 1203.56,900.081 1201.38,910.322 1199.34,920.233 1197.29,929.793 1195.1,938.992 1192.65,947.829 1189.84,956.312 1186.56,964.453 1182.7,972.267 1178.13,979.768 1172.71,986.969 1166.25,993.871 1158.56,1000.46 1149.4,1006.72 1138.48,1012.56 1125.47,1017.89 1109.99,1022.49 1091.61,1026.06 1069.89,1028.13 1044.38,1027.97 1014.71,1024.53 980.7,1016.28 942.581,1001.16 901.303,976.456 858.99,938.939 819.495,885.398 788.847,813.865 775.174,725.83 787.343,629.099 831.73,539.494 907.793,477.942 1005.52,460.675 1108.56,487.599 1202.11,540.938 1278.76,597.889 1337.89,643.896 1381.91,675.012 1413.47,693.297 1434.54,702.627 1446.4,706.812 1449.89,709.036 1445.82,711.715 1435.17,716.433 1419.26,723.912 1399.75,734.088 1378.42,746.328 1356.95,759.748 1336.74,773.508 1318.75,787.007 1303.51,799.931 1291.2,812.188 1281.73,823.816 1274.88,834.894 1270.35,845.486 1267.84,855.621 1267.08,865.288 1267.88,874.441 1270.07,883.013 1273.59,890.918 1278.4,898.055 1284.54,904.307 1292.08,909.536 1301.16,913.579 1311.93,916.234 1324.6,917.252 1339.38,916.326 1356.48,913.073 1376.1,907.034 1398.37,897.668 1423.24,884.374 1450.46,866.546 1479.34,843.691 1508.63,815.632 1536.29,782.828 1559.37,746.793 1574.03,710.513 1576.02,678.594 1561.66,656.701 1529.3,649.954 1480.67,660.512 1421.08,685.727 1357.95,718.701 1298.25,751.514 1246.45,778.8 1204.15,799.001 1170.91,813.204 1145.3,823.358 1125.62,831.156 1110.28,837.706 1097.92,843.586 1087.46,849.009 1078.07,853.975 1069.13,858.361 1060.21,861.986 1051,864.637 1041.35,866.086 1031.2,866.1 1020.6,864.443 1009.71,860.892 998.801,855.253 988.256,847.392 978.574,837.276 970.35,825.019 964.243,810.944 960.916,795.62 960.953,779.883 964.753,764.796 972.43,751.549 983.748,741.294 998.107,734.949 1014.61,733.028 1032.18,735.559 1049.75,742.115 1066.36,751.944 1081.28,764.147 1094.05,777.846 1104.42,792.287 1112.35,806.886 1117.91,821.234 1121.26,835.059 1122.55,848.197 1121.94,860.55 1119.56,872.058 1115.5,882.678 1109.79,892.36 1102.44,901.036 1093.42,908.606 1082.67,914.919 1070.12,919.766 1055.71,922.856 1039.43,923.806 1021.33,922.123 1001.61,917.202 980.671,908.333 959.179,894.756 938.188,875.758 919.184,850.868 904.101,820.137 895.196,784.499 894.749,746.112 904.555,708.476 925.293,676.076 956.026,653.411 994.133,643.597 1035.86,647.237 1077.29,662.261 1115.33,684.906 1148.14,711.181 1175.11,737.964 1196.52,763.35 1213.15,786.457 1225.95,807.062 1235.88,825.272 1243.79,841.327 1250.41,855.486 1256.32,867.98 1262.02,878.992 1267.9,888.651 1274.27,897.033 1281.42,904.16 1289.61,910.003 1299.08,914.479 1310.1,917.446 1322.9,918.7 1337.75,917.961 1354.89,914.869 1374.55,908.976 1396.87,899.743 1421.85,886.567 1449.24,868.826 1478.39,845.999 1508.09,817.867 1536.31,784.833 1560.11,748.353 1575.6,711.376 1578.44,678.528 1564.77,655.606 1532.74,647.967 1483.92,658.048 1423.62,683.351 1359.43,716.872 1298.55,750.384 1245.66,778.22 1202.46,798.687 1168.54,812.887 1142.42,822.845 1122.38,830.332 1106.79,836.504 1094.28,841.971 1083.76,846.963 1074.38,851.489 1065.54,855.436 1056.79,858.628 1047.86,860.861 1038.57,861.921 1028.9,861.588 1018.89,859.653 1008.72,855.922 998.654,850.24 989.057,842.519 980.4,832.772 973.23,821.159 968.133,808.029 965.682,793.951 966.353,779.712 970.448,766.278 978.004,754.693 988.755,745.933 1002.13,740.752 1017.31,739.545 1033.35,742.3 1049.31,748.626 1064.36,757.867 1077.85,769.249 1089.37,782.009 1098.68,795.482 1105.73,809.143 1110.56,822.61 1113.28,835.617 1114.01,847.99 1112.89,859.614 1110.02,870.406 1105.45,880.295 1099.23,889.205 1091.36,897.036 1081.81,903.653 1070.56,908.871 1057.58,912.441 1042.86,914.037 1026.48,913.247 1008.6,909.563 989.56,902.4 969.926,891.126 950.556,875.145 932.666,854.038 917.838,827.775 907.946,796.991 904.945,763.255 910.507,729.218 925.535,698.441 949.721,674.771 981.355,661.338 1017.59,659.551 1055.09,668.643 1090.86,686.08 1122.78,708.582 1149.77,733.142 1171.65,757.599 1188.85,780.701 1202.06,801.896 1212.1,821.064 1219.73,838.303 1225.65,853.803 1230.42,867.768 1234.49,880.386 1238.25,891.816 1241.98,902.179 1245.91,911.563 1250.27,920.024 1255.23,927.583 1260.98,934.232 1267.7,939.928 1275.61,944.593 1284.93,948.106 1295.92,950.296 1308.87,950.925 1324.1,949.68 1341.95,946.145 1362.77,939.79 1386.86,929.946 1414.41,915.811 1445.42,896.469 1479.44,870.994 1515.39,838.658 1551.17,799.324 1583.37,754.076 1607,706.031 1615.84,661.034 1603.6,627.503 1566.27,614.406 1504.82,627.013 1426.57,662.416 1343.02,709.16 1265.07,753.193 1199.15,785.504 1146.81,804.553 1106.75,813.269 1076.72,815.376 1054.56,813.694 1038.51,809.981 1027.28,805.271 1019.9,800.201 1015.67,795.223 1014.05,790.693 1014.6,786.918 1016.91,784.154 1020.61,782.591 1025.3,782.348 1030.62,783.457 1036.21,785.868 1041.72,789.461 1046.86,794.06 1051.39,799.455 1055.1,805.419 1057.87,811.725 1059.57,818.156 1060.17,824.512 1059.62,830.608 1057.93,836.275 1055.13,841.357 1051.24,845.704 1046.34,849.171 1040.49,851.611 1033.81,852.88 1026.44,852.834 1018.55,851.336 1010.39,848.265 1002.23,843.536 994.427,837.117 987.385,829.06 981.552,819.527 977.389,808.819 975.335,797.395 975.752,785.863 978.866,774.952 984.716,765.439 993.119,758.061 1003.67,753.407 1015.79,751.831 1028.78,753.404 1041.9,757.924 1054.49,764.976 1065.98,774.015 1075.97,784.463 1084.18,795.777 1090.49,807.49 1094.85,819.228 1097.3,830.705 1097.91,841.706 1096.73,852.071 1093.86,861.669 1089.34,870.385 1083.21,878.098 1075.51,884.674 1066.24,889.944 1055.43,893.702 1043.14,895.689 1029.46,895.591 1014.57,893.037 998.776,887.614 982.53,878.893 966.5,866.491 951.589,850.159 938.935,829.92 929.866,806.231 925.77,780.138 927.879,753.374 936.98,728.273 953.136,707.47 975.516,693.354 1002.45,687.464 1031.72,690.064 1061.04,700.138 1088.5,715.803 1112.77,734.911 1133.21,755.561 1149.7,776.358 1162.52,796.436 1172.11,815.349 1179,832.933 1183.69,849.188 1186.63,864.202 1188.19,878.093 1188.62,890.99 1188.14,903.013 1186.87,914.269 1184.89,924.85 1182.21,934.834 1178.81,944.283 1174.63,953.247 1169.57,961.761 1163.51,969.846 1156.29,977.505 1147.69,984.716 1137.48,991.427 1125.37,997.534 1111.04,1002.87 1094.13,1007.17 1074.26,1010.02 1051.04,1010.82 1024.15,1008.69 993.439,1002.4 959.057,990.247 921.718,970.054 883.039,939.21 845.963,895.035 815.137,835.621 796.971,761.38 798.868,677.159 827.126,593.957 883.666,528.018 963.244,495.114 1054,501.5 1142.37,538.868 1218.91,589.692 1280.28,638.211 1327.33,676.526 1362.43,703.41 1387.94,720.776 1405.72,731.281 1417.11,737.359 1423.06,740.981 1424.32,743.648 1421.57,746.43 1415.48,750.011 1406.84,754.729 1396.43,760.64 1385.1,767.595 1373.61,775.326 1362.63,783.535 1352.71,791.943 1344.22,800.326 1337.39,808.515 1332.36,816.385 1329.14,823.839 1327.73,830.789 1328.07,837.142 1330.09,842.794 1333.76,847.628 1339.02,851.507 1345.85,854.278 1354.23,855.767 1364.14,855.787 1375.53,854.137 1388.34,850.609 1402.42,845.006 1417.54,837.165 1433.33,826.992 1449.22,814.52 1464.46,799.973 1478.05,783.85 1488.77,766.984 1495.29,750.574 1496.33,736.12 1490.88,725.229 1478.52,719.304 1459.62,719.158 1435.39,724.73 1407.76,735.062 1378.93,748.584 1351,763.613 1325.56,778.795 1303.58,793.327 1285.43,806.918 1271.04,819.61 1260.08,831.585 1252.06,843.03 1246.48,854.08 1242.9,864.798 1240.91,875.193 "/>
<path clip-path="url(#clip610)" d="M215.55 198.898 L489.07 198.898 L489.07 95.2176 L215.55 95.2176  Z" fill="#ffffff" fill-rule="evenodd" fill-opacity="1"/>
<polyline clip-path="url(#clip610)" style="stroke:#000000; stroke-linecap:round; stroke-linejoin:round; stroke-width:4; stroke-opacity:1; fill:none" points="215.55,198.898 489.07,198.898 489.07,95.2176 215.55,95.2176 215.55,198.898 "/>
<polyline clip-path="url(#clip610)" style="stroke:#009af9; stroke-linecap:round; stroke-linejoin:round; stroke-width:4; stroke-opacity:1; fill:none" points="240.115,147.058 387.509,147.058 "/>
<path clip-path="url(#clip610)" d="M425.917 166.745 Q424.111 171.375 422.398 172.787 Q420.685 174.199 417.815 174.199 L414.412 174.199 L414.412 170.634 L416.912 170.634 Q418.672 170.634 419.644 169.8 Q420.616 168.967 421.797 165.865 L422.56 163.921 L412.074 138.412 L416.588 138.412 L424.69 158.689 L432.792 138.412 L437.306 138.412 L425.917 166.745 Z" fill="#000000" fill-rule="nonzero" fill-opacity="1" /><path clip-path="url(#clip610)" d="M444.597 160.402 L452.236 160.402 L452.236 134.037 L443.926 135.703 L443.926 131.444 L452.19 129.778 L456.866 129.778 L456.866 160.402 L464.505 160.402 L464.505 164.338 L444.597 164.338 L444.597 160.402 Z" fill="#000000" fill-rule="nonzero" fill-opacity="1" /></svg>
