<?xml version="1.0" encoding="utf-8"?>
<svg xmlns="http://www.w3.org/2000/svg" xmlns:xlink="http://www.w3.org/1999/xlink" width="600" height="400" viewBox="0 0 2400 1600">
<defs>
  <clipPath id="clip650">
    <rect x="0" y="0" width="2400" height="1600"/>
  </clipPath>
</defs>
<path clip-path="url(#clip650)" d="M0 1600 L2400 1600 L2400 0 L0 0  Z" fill="#ffffff" fill-rule="evenodd" fill-opacity="1"/>
<defs>
  <clipPath id="clip651">
    <rect x="480" y="0" width="1681" height="1600"/>
  </clipPath>
</defs>
<path clip-path="url(#clip650)" d="M189.496 1474.16 L2352.76 1474.16 L2352.76 123.472 L189.496 123.472  Z" fill="#ffffff" fill-rule="evenodd" fill-opacity="1"/>
<defs>
  <clipPath id="clip652">
    <rect x="189" y="123" width="2164" height="1352"/>
  </clipPath>
</defs>
<polyline clip-path="url(#clip652)" style="stroke:#000000; stroke-linecap:round; stroke-linejoin:round; stroke-width:2; stroke-opacity:0.1; fill:none" points="790.281,1474.16 790.281,123.472 "/>
<polyline clip-path="url(#clip652)" style="stroke:#000000; stroke-linecap:round; stroke-linejoin:round; stroke-width:2; stroke-opacity:0.1; fill:none" points="2146.17,1474.16 2146.17,123.472 "/>
<polyline clip-path="url(#clip650)" style="stroke:#000000; stroke-linecap:round; stroke-linejoin:round; stroke-width:4; stroke-opacity:1; fill:none" points="189.496,1474.16 2352.76,1474.16 "/>
<polyline clip-path="url(#clip650)" style="stroke:#000000; stroke-linecap:round; stroke-linejoin:round; stroke-width:4; stroke-opacity:1; fill:none" points="790.281,1474.16 790.281,1455.27 "/>
<polyline clip-path="url(#clip650)" style="stroke:#000000; stroke-linecap:round; stroke-linejoin:round; stroke-width:4; stroke-opacity:1; fill:none" points="2146.17,1474.16 2146.17,1455.27 "/>
<path clip-path="url(#clip650)" d="M756.609 1548.29 L764.248 1548.29 L764.248 1521.92 L755.938 1523.59 L755.938 1519.33 L764.202 1517.66 L768.877 1517.66 L768.877 1548.29 L776.516 1548.29 L776.516 1552.22 L756.609 1552.22 L756.609 1548.29 Z" fill="#000000" fill-rule="nonzero" fill-opacity="1" /><path clip-path="url(#clip650)" d="M795.961 1520.74 Q792.35 1520.74 790.521 1524.31 Q788.715 1527.85 788.715 1534.98 Q788.715 1542.09 790.521 1545.65 Q792.35 1549.19 795.961 1549.19 Q799.595 1549.19 801.4 1545.65 Q803.229 1542.09 803.229 1534.98 Q803.229 1527.85 801.4 1524.31 Q799.595 1520.74 795.961 1520.74 M795.961 1517.04 Q801.771 1517.04 804.826 1521.65 Q807.905 1526.23 807.905 1534.98 Q807.905 1543.71 804.826 1548.31 Q801.771 1552.9 795.961 1552.9 Q790.15 1552.9 787.072 1548.31 Q784.016 1543.71 784.016 1534.98 Q784.016 1526.23 787.072 1521.65 Q790.15 1517.04 795.961 1517.04 Z" fill="#000000" fill-rule="nonzero" fill-opacity="1" /><path clip-path="url(#clip650)" d="M808.45 1521.62 L814.657 1521.62 L814.657 1500.19 L807.905 1501.55 L807.905 1498.09 L814.619 1496.73 L818.419 1496.73 L818.419 1521.62 L824.625 1521.62 L824.625 1524.81 L808.45 1524.81 L808.45 1521.62 Z" fill="#000000" fill-rule="nonzero" fill-opacity="1" /><path clip-path="url(#clip650)" d="M2111.94 1548.29 L2119.58 1548.29 L2119.58 1521.92 L2111.27 1523.59 L2111.27 1519.33 L2119.53 1517.66 L2124.21 1517.66 L2124.21 1548.29 L2131.85 1548.29 L2131.85 1552.22 L2111.94 1552.22 L2111.94 1548.29 Z" fill="#000000" fill-rule="nonzero" fill-opacity="1" /><path clip-path="url(#clip650)" d="M2151.29 1520.74 Q2147.68 1520.74 2145.85 1524.31 Q2144.05 1527.85 2144.05 1534.98 Q2144.05 1542.09 2145.85 1545.65 Q2147.68 1549.19 2151.29 1549.19 Q2154.93 1549.19 2156.73 1545.65 Q2158.56 1542.09 2158.56 1534.98 Q2158.56 1527.85 2156.73 1524.31 Q2154.93 1520.74 2151.29 1520.74 M2151.29 1517.04 Q2157.1 1517.04 2160.16 1521.65 Q2163.24 1526.23 2163.24 1534.98 Q2163.24 1543.71 2160.16 1548.31 Q2157.1 1552.9 2151.29 1552.9 Q2145.48 1552.9 2142.4 1548.31 Q2139.35 1543.71 2139.35 1534.98 Q2139.35 1526.23 2142.4 1521.65 Q2145.48 1517.04 2151.29 1517.04 Z" fill="#000000" fill-rule="nonzero" fill-opacity="1" /><path clip-path="url(#clip650)" d="M2167.81 1521.62 L2181.07 1521.62 L2181.07 1524.81 L2163.24 1524.81 L2163.24 1521.62 Q2165.4 1519.38 2169.12 1515.62 Q2172.87 1511.84 2173.82 1510.75 Q2175.65 1508.7 2176.36 1507.29 Q2177.1 1505.86 2177.1 1504.48 Q2177.1 1502.24 2175.52 1500.83 Q2173.96 1499.42 2171.44 1499.42 Q2169.65 1499.42 2167.66 1500.04 Q2165.68 1500.67 2163.42 1501.93 L2163.42 1498.09 Q2165.72 1497.17 2167.71 1496.7 Q2169.71 1496.23 2171.36 1496.23 Q2175.72 1496.23 2178.32 1498.41 Q2180.92 1500.59 2180.92 1504.24 Q2180.92 1505.97 2180.26 1507.53 Q2179.62 1509.07 2177.91 1511.18 Q2177.44 1511.72 2174.92 1514.34 Q2172.4 1516.93 2167.81 1521.62 Z" fill="#000000" fill-rule="nonzero" fill-opacity="1" /><polyline clip-path="url(#clip652)" style="stroke:#000000; stroke-linecap:round; stroke-linejoin:round; stroke-width:2; stroke-opacity:0.1; fill:none" points="189.496,1072.52 2352.76,1072.52 "/>
<polyline clip-path="url(#clip652)" style="stroke:#000000; stroke-linecap:round; stroke-linejoin:round; stroke-width:2; stroke-opacity:0.1; fill:none" points="189.496,619.761 2352.76,619.761 "/>
<polyline clip-path="url(#clip652)" style="stroke:#000000; stroke-linecap:round; stroke-linejoin:round; stroke-width:2; stroke-opacity:0.1; fill:none" points="189.496,167.005 2352.76,167.005 "/>
<polyline clip-path="url(#clip650)" style="stroke:#000000; stroke-linecap:round; stroke-linejoin:round; stroke-width:4; stroke-opacity:1; fill:none" points="189.496,1474.16 189.496,123.472 "/>
<polyline clip-path="url(#clip650)" style="stroke:#000000; stroke-linecap:round; stroke-linejoin:round; stroke-width:4; stroke-opacity:1; fill:none" points="189.496,1072.52 208.394,1072.52 "/>
<polyline clip-path="url(#clip650)" style="stroke:#000000; stroke-linecap:round; stroke-linejoin:round; stroke-width:4; stroke-opacity:1; fill:none" points="189.496,619.761 208.394,619.761 "/>
<polyline clip-path="url(#clip650)" style="stroke:#000000; stroke-linecap:round; stroke-linejoin:round; stroke-width:4; stroke-opacity:1; fill:none" points="189.496,167.005 208.394,167.005 "/>
<path clip-path="url(#clip650)" d="M51.9267 1092.31 L59.5656 1092.31 L59.5656 1065.94 L51.2554 1067.61 L51.2554 1063.35 L59.5193 1061.68 L64.1952 1061.68 L64.1952 1092.31 L71.834 1092.31 L71.834 1096.24 L51.9267 1096.24 L51.9267 1092.31 Z" fill="#000000" fill-rule="nonzero" fill-opacity="1" /><path clip-path="url(#clip650)" d="M91.2784 1064.76 Q87.6673 1064.76 85.8386 1068.33 Q84.033 1071.87 84.033 1079 Q84.033 1086.1 85.8386 1089.67 Q87.6673 1093.21 91.2784 1093.21 Q94.9126 1093.21 96.7182 1089.67 Q98.5468 1086.1 98.5468 1079 Q98.5468 1071.87 96.7182 1068.33 Q94.9126 1064.76 91.2784 1064.76 M91.2784 1061.06 Q97.0885 1061.06 100.144 1065.67 Q103.223 1070.25 103.223 1079 Q103.223 1087.73 100.144 1092.33 Q97.0885 1096.92 91.2784 1096.92 Q85.4682 1096.92 82.3895 1092.33 Q79.334 1087.73 79.334 1079 Q79.334 1070.25 82.3895 1065.67 Q85.4682 1061.06 91.2784 1061.06 Z" fill="#000000" fill-rule="nonzero" fill-opacity="1" /><path clip-path="url(#clip650)" d="M103.223 1055.16 L127.334 1055.16 L127.334 1058.36 L103.223 1058.36 L103.223 1055.16 Z" fill="#000000" fill-rule="nonzero" fill-opacity="1" /><path clip-path="url(#clip650)" d="M144.13 1053.28 Q141.572 1053.28 140.067 1055.03 Q138.581 1056.78 138.581 1059.82 Q138.581 1062.85 140.067 1064.62 Q141.572 1066.37 144.13 1066.37 Q146.688 1066.37 148.173 1064.62 Q149.678 1062.85 149.678 1059.82 Q149.678 1056.78 148.173 1055.03 Q146.688 1053.28 144.13 1053.28 M151.672 1041.37 L151.672 1044.83 Q150.242 1044.16 148.775 1043.8 Q147.327 1043.44 145.898 1043.44 Q142.136 1043.44 140.142 1045.98 Q138.168 1048.52 137.885 1053.66 Q138.995 1052.02 140.669 1051.15 Q142.343 1050.27 144.355 1050.27 Q148.587 1050.27 151.032 1052.85 Q153.496 1055.4 153.496 1059.82 Q153.496 1064.15 150.938 1066.76 Q148.38 1069.38 144.13 1069.38 Q139.258 1069.38 136.682 1065.65 Q134.105 1061.91 134.105 1054.82 Q134.105 1048.16 137.265 1044.21 Q140.425 1040.25 145.747 1040.25 Q147.177 1040.25 148.625 1040.53 Q150.092 1040.81 151.672 1041.37 Z" fill="#000000" fill-rule="nonzero" fill-opacity="1" /><path clip-path="url(#clip650)" d="M52.8671 639.553 L60.506 639.553 L60.506 613.187 L52.1958 614.854 L52.1958 610.595 L60.4597 608.928 L65.1356 608.928 L65.1356 639.553 L72.7744 639.553 L72.7744 643.488 L52.8671 643.488 L52.8671 639.553 Z" fill="#000000" fill-rule="nonzero" fill-opacity="1" /><path clip-path="url(#clip650)" d="M92.2188 612.007 Q88.6077 612.007 86.779 615.572 Q84.9734 619.113 84.9734 626.243 Q84.9734 633.349 86.779 636.914 Q88.6077 640.456 92.2188 640.456 Q95.853 640.456 97.6585 636.914 Q99.4872 633.349 99.4872 626.243 Q99.4872 619.113 97.6585 615.572 Q95.853 612.007 92.2188 612.007 M92.2188 608.303 Q98.0289 608.303 101.084 612.91 Q104.163 617.493 104.163 626.243 Q104.163 634.97 101.084 639.576 Q98.0289 644.159 92.2188 644.159 Q86.4086 644.159 83.3299 639.576 Q80.2744 634.97 80.2744 626.243 Q80.2744 617.493 83.3299 612.91 Q86.4086 608.303 92.2188 608.303 Z" fill="#000000" fill-rule="nonzero" fill-opacity="1" /><path clip-path="url(#clip650)" d="M104.163 602.404 L128.275 602.404 L128.275 605.602 L104.163 605.602 L104.163 602.404 Z" fill="#000000" fill-rule="nonzero" fill-opacity="1" /><path clip-path="url(#clip650)" d="M136.513 587.998 L151.427 587.998 L151.427 591.195 L139.992 591.195 L139.992 598.079 Q140.819 597.797 141.647 597.665 Q142.475 597.514 143.302 597.514 Q148.004 597.514 150.75 600.091 Q153.496 602.668 153.496 607.069 Q153.496 611.601 150.675 614.122 Q147.854 616.623 142.719 616.623 Q140.951 616.623 139.108 616.322 Q137.284 616.021 135.328 615.419 L135.328 611.601 Q137.02 612.523 138.826 612.974 Q140.631 613.426 142.644 613.426 Q145.898 613.426 147.797 611.714 Q149.697 610.003 149.697 607.069 Q149.697 604.135 147.797 602.423 Q145.898 600.712 142.644 600.712 Q141.12 600.712 139.597 601.05 Q138.092 601.389 136.513 602.104 L136.513 587.998 Z" fill="#000000" fill-rule="nonzero" fill-opacity="1" /><path clip-path="url(#clip650)" d="M51.6634 186.797 L59.3023 186.797 L59.3023 160.432 L50.9921 162.098 L50.9921 157.839 L59.256 156.172 L63.9319 156.172 L63.9319 186.797 L71.5707 186.797 L71.5707 190.732 L51.6634 190.732 L51.6634 186.797 Z" fill="#000000" fill-rule="nonzero" fill-opacity="1" /><path clip-path="url(#clip650)" d="M91.0151 159.251 Q87.404 159.251 85.5753 162.816 Q83.7697 166.358 83.7697 173.487 Q83.7697 180.594 85.5753 184.158 Q87.404 187.7 91.0151 187.7 Q94.6493 187.7 96.4548 184.158 Q98.2835 180.594 98.2835 173.487 Q98.2835 166.358 96.4548 162.816 Q94.6493 159.251 91.0151 159.251 M91.0151 155.547 Q96.8252 155.547 99.8808 160.154 Q102.959 164.737 102.959 173.487 Q102.959 182.214 99.8808 186.82 Q96.8252 191.404 91.0151 191.404 Q85.2049 191.404 82.1262 186.82 Q79.0707 182.214 79.0707 173.487 Q79.0707 164.737 82.1262 160.154 Q85.2049 155.547 91.0151 155.547 Z" fill="#000000" fill-rule="nonzero" fill-opacity="1" /><path clip-path="url(#clip650)" d="M102.959 149.649 L127.071 149.649 L127.071 152.846 L102.959 152.846 L102.959 149.649 Z" fill="#000000" fill-rule="nonzero" fill-opacity="1" /><path clip-path="url(#clip650)" d="M145.71 138.552 L136.118 153.542 L145.71 153.542 L145.71 138.552 M144.713 135.242 L149.49 135.242 L149.49 153.542 L153.496 153.542 L153.496 156.702 L149.49 156.702 L149.49 163.322 L145.71 163.322 L145.71 156.702 L133.033 156.702 L133.033 153.034 L144.713 135.242 Z" fill="#000000" fill-rule="nonzero" fill-opacity="1" /><path clip-path="url(#clip650)" d="M225.324 12.096 L237.517 12.096 L252.951 53.2532 L268.466 12.096 L280.66 12.096 L280.66 72.576 L272.679 72.576 L272.679 19.4686 L257.083 60.9499 L248.86 60.9499 L233.264 19.4686 L233.264 72.576 L225.324 72.576 L225.324 12.096 Z" fill="#000000" fill-rule="nonzero" fill-opacity="1" /><path clip-path="url(#clip650)" d="M296.58 27.2059 L304.033 27.2059 L304.033 72.576 L296.58 72.576 L296.58 27.2059 M296.58 9.54393 L304.033 9.54393 L304.033 18.9825 L296.58 18.9825 L296.58 9.54393 Z" fill="#000000" fill-rule="nonzero" fill-opacity="1" /><path clip-path="url(#clip650)" d="M352.28 28.9478 L352.28 35.9153 Q349.12 34.1734 345.92 33.3227 Q342.76 32.4315 339.519 32.4315 Q332.268 32.4315 328.258 37.0496 Q324.247 41.6271 324.247 49.9314 Q324.247 58.2358 328.258 62.8538 Q332.268 67.4314 339.519 67.4314 Q342.76 67.4314 345.92 66.5807 Q349.12 65.6895 352.28 63.9476 L352.28 70.8341 Q349.16 72.2924 345.798 73.0216 Q342.476 73.7508 338.709 73.7508 Q328.46 73.7508 322.424 67.3098 Q316.389 60.8689 316.389 49.9314 Q316.389 38.832 322.465 32.472 Q328.582 26.1121 339.195 26.1121 Q342.638 26.1121 345.92 26.8413 Q349.201 27.5299 352.28 28.9478 Z" fill="#000000" fill-rule="nonzero" fill-opacity="1" /><path clip-path="url(#clip650)" d="M391.533 34.1734 Q390.277 33.4443 388.778 33.1202 Q387.32 32.7556 385.537 32.7556 Q379.218 32.7556 375.815 36.8875 Q372.453 40.9789 372.453 48.6757 L372.453 72.576 L364.959 72.576 L364.959 27.2059 L372.453 27.2059 L372.453 34.2544 Q374.803 30.1225 378.57 28.1376 Q382.337 26.1121 387.725 26.1121 Q388.495 26.1121 389.426 26.2337 Q390.358 26.3147 391.492 26.5172 L391.533 34.1734 Z" fill="#000000" fill-rule="nonzero" fill-opacity="1" /><path clip-path="url(#clip650)" d="M415.109 32.4315 Q409.114 32.4315 405.63 37.1306 Q402.146 41.7891 402.146 49.9314 Q402.146 58.0738 405.589 62.7728 Q409.073 67.4314 415.109 67.4314 Q421.064 67.4314 424.548 62.7323 Q428.031 58.0333 428.031 49.9314 Q428.031 41.8701 424.548 37.1711 Q421.064 32.4315 415.109 32.4315 M415.109 26.1121 Q424.831 26.1121 430.381 32.4315 Q435.931 38.7509 435.931 49.9314 Q435.931 61.0714 430.381 67.4314 Q424.831 73.7508 415.109 73.7508 Q405.346 73.7508 399.797 67.4314 Q394.287 61.0714 394.287 49.9314 Q394.287 38.7509 399.797 32.4315 Q405.346 26.1121 415.109 26.1121 Z" fill="#000000" fill-rule="nonzero" fill-opacity="1" /><path clip-path="url(#clip650)" d="M446.058 46.5287 L467.892 46.5287 L467.892 53.1722 L446.058 53.1722 L446.058 46.5287 Z" fill="#000000" fill-rule="nonzero" fill-opacity="1" /><path clip-path="url(#clip650)" d="M498.882 32.4315 Q492.886 32.4315 489.403 37.1306 Q485.919 41.7891 485.919 49.9314 Q485.919 58.0738 489.362 62.7728 Q492.846 67.4314 498.882 67.4314 Q504.837 67.4314 508.32 62.7323 Q511.804 58.0333 511.804 49.9314 Q511.804 41.8701 508.32 37.1711 Q504.837 32.4315 498.882 32.4315 M498.882 26.1121 Q508.604 26.1121 514.154 32.4315 Q519.703 38.7509 519.703 49.9314 Q519.703 61.0714 514.154 67.4314 Q508.604 73.7508 498.882 73.7508 Q489.119 73.7508 483.569 67.4314 Q478.06 61.0714 478.06 49.9314 Q478.06 38.7509 483.569 32.4315 Q489.119 26.1121 498.882 26.1121 Z" fill="#000000" fill-rule="nonzero" fill-opacity="1" /><path clip-path="url(#clip650)" d="M539.269 65.7705 L539.269 89.8329 L531.775 89.8329 L531.775 27.2059 L539.269 27.2059 L539.269 34.0924 Q541.619 30.0415 545.184 28.0971 Q548.789 26.1121 553.772 26.1121 Q562.035 26.1121 567.18 32.6746 Q572.365 39.2371 572.365 49.9314 Q572.365 60.6258 567.18 67.1883 Q562.035 73.7508 553.772 73.7508 Q548.789 73.7508 545.184 71.8063 Q541.619 69.8214 539.269 65.7705 M564.628 49.9314 Q564.628 41.7081 561.225 37.0496 Q557.863 32.3505 551.949 32.3505 Q546.034 32.3505 542.632 37.0496 Q539.269 41.7081 539.269 49.9314 Q539.269 58.1548 542.632 62.8538 Q546.034 67.5124 551.949 67.5124 Q557.863 67.5124 561.225 62.8538 Q564.628 58.1548 564.628 49.9314 Z" fill="#000000" fill-rule="nonzero" fill-opacity="1" /><path clip-path="url(#clip650)" d="M592.093 14.324 L592.093 27.2059 L607.446 27.2059 L607.446 32.9987 L592.093 32.9987 L592.093 57.6282 Q592.093 63.1779 593.592 64.7578 Q595.131 66.3376 599.79 66.3376 L607.446 66.3376 L607.446 72.576 L599.79 72.576 Q591.161 72.576 587.88 69.3758 Q584.599 66.1351 584.599 57.6282 L584.599 32.9987 L579.13 32.9987 L579.13 27.2059 L584.599 27.2059 L584.599 14.324 L592.093 14.324 Z" fill="#000000" fill-rule="nonzero" fill-opacity="1" /><path clip-path="url(#clip650)" d="M617.249 27.2059 L624.703 27.2059 L624.703 72.576 L617.249 72.576 L617.249 27.2059 M617.249 9.54393 L624.703 9.54393 L624.703 18.9825 L617.249 18.9825 L617.249 9.54393 Z" fill="#000000" fill-rule="nonzero" fill-opacity="1" /><path clip-path="url(#clip650)" d="M675.623 35.9153 Q678.418 30.8922 682.307 28.5022 Q686.196 26.1121 691.462 26.1121 Q698.551 26.1121 702.399 31.0947 Q706.248 36.0368 706.248 45.1919 L706.248 72.576 L698.753 72.576 L698.753 45.4349 Q698.753 38.913 696.444 35.7533 Q694.135 32.5936 689.396 32.5936 Q683.603 32.5936 680.241 36.4419 Q676.879 40.2903 676.879 46.9338 L676.879 72.576 L669.384 72.576 L669.384 45.4349 Q669.384 38.8725 667.075 35.7533 Q664.766 32.5936 659.946 32.5936 Q654.234 32.5936 650.872 36.4824 Q647.509 40.3308 647.509 46.9338 L647.509 72.576 L640.015 72.576 L640.015 27.2059 L647.509 27.2059 L647.509 34.2544 Q650.062 30.082 653.626 28.0971 Q657.191 26.1121 662.093 26.1121 Q667.035 26.1121 670.478 28.6237 Q673.962 31.1352 675.623 35.9153 Z" fill="#000000" fill-rule="nonzero" fill-opacity="1" /><path clip-path="url(#clip650)" d="M721.114 27.2059 L728.568 27.2059 L728.568 72.576 L721.114 72.576 L721.114 27.2059 M721.114 9.54393 L728.568 9.54393 L728.568 18.9825 L721.114 18.9825 L721.114 9.54393 Z" fill="#000000" fill-rule="nonzero" fill-opacity="1" /><path clip-path="url(#clip650)" d="M740.923 27.2059 L776.328 27.2059 L776.328 34.0114 L748.296 66.6212 L776.328 66.6212 L776.328 72.576 L739.911 72.576 L739.911 65.7705 L767.943 33.1607 L740.923 33.1607 L740.923 27.2059 Z" fill="#000000" fill-rule="nonzero" fill-opacity="1" /><path clip-path="url(#clip650)" d="M808.33 49.7694 Q799.297 49.7694 795.813 51.8354 Q792.329 53.9013 792.329 58.8839 Q792.329 62.8538 794.922 65.2034 Q797.555 67.5124 802.051 67.5124 Q808.249 67.5124 811.976 63.1374 Q815.744 58.7219 815.744 51.4303 L815.744 49.7694 L808.33 49.7694 M823.197 46.6907 L823.197 72.576 L815.744 72.576 L815.744 65.6895 Q813.191 69.8214 809.384 71.8063 Q805.576 73.7508 800.067 73.7508 Q793.099 73.7508 788.967 69.8619 Q784.876 65.9325 784.876 59.3701 Q784.876 51.7138 789.98 47.825 Q795.124 43.9361 805.292 43.9361 L815.744 43.9361 L815.744 43.2069 Q815.744 38.0623 812.341 35.2672 Q808.979 32.4315 802.862 32.4315 Q798.973 32.4315 795.286 33.3632 Q791.6 34.295 788.197 36.1584 L788.197 29.2718 Q792.289 27.692 796.137 26.9223 Q799.985 26.1121 803.631 26.1121 Q813.475 26.1121 818.336 31.2163 Q823.197 36.3204 823.197 46.6907 Z" fill="#000000" fill-rule="nonzero" fill-opacity="1" /><path clip-path="url(#clip650)" d="M845.923 14.324 L845.923 27.2059 L861.276 27.2059 L861.276 32.9987 L845.923 32.9987 L845.923 57.6282 Q845.923 63.1779 847.422 64.7578 Q848.961 66.3376 853.619 66.3376 L861.276 66.3376 L861.276 72.576 L853.619 72.576 Q844.991 72.576 841.71 69.3758 Q838.429 66.1351 838.429 57.6282 L838.429 32.9987 L832.96 32.9987 L832.96 27.2059 L838.429 27.2059 L838.429 14.324 L845.923 14.324 Z" fill="#000000" fill-rule="nonzero" fill-opacity="1" /><path clip-path="url(#clip650)" d="M871.079 27.2059 L878.533 27.2059 L878.533 72.576 L871.079 72.576 L871.079 27.2059 M871.079 9.54393 L878.533 9.54393 L878.533 18.9825 L871.079 18.9825 L871.079 9.54393 Z" fill="#000000" fill-rule="nonzero" fill-opacity="1" /><path clip-path="url(#clip650)" d="M911.709 32.4315 Q905.714 32.4315 902.23 37.1306 Q898.747 41.7891 898.747 49.9314 Q898.747 58.0738 902.19 62.7728 Q905.674 67.4314 911.709 67.4314 Q917.664 67.4314 921.148 62.7323 Q924.632 58.0333 924.632 49.9314 Q924.632 41.8701 921.148 37.1711 Q917.664 32.4315 911.709 32.4315 M911.709 26.1121 Q921.432 26.1121 926.981 32.4315 Q932.531 38.7509 932.531 49.9314 Q932.531 61.0714 926.981 67.4314 Q921.432 73.7508 911.709 73.7508 Q901.947 73.7508 896.397 67.4314 Q890.888 61.0714 890.888 49.9314 Q890.888 38.7509 896.397 32.4315 Q901.947 26.1121 911.709 26.1121 Z" fill="#000000" fill-rule="nonzero" fill-opacity="1" /><path clip-path="url(#clip650)" d="M982.6 45.1919 L982.6 72.576 L975.147 72.576 L975.147 45.4349 Q975.147 38.994 972.635 35.7938 Q970.123 32.5936 965.1 32.5936 Q959.065 32.5936 955.581 36.4419 Q952.097 40.2903 952.097 46.9338 L952.097 72.576 L944.603 72.576 L944.603 27.2059 L952.097 27.2059 L952.097 34.2544 Q954.771 30.163 958.376 28.1376 Q962.022 26.1121 966.761 26.1121 Q974.579 26.1121 978.59 30.9732 Q982.6 35.7938 982.6 45.1919 Z" fill="#000000" fill-rule="nonzero" fill-opacity="1" /><path clip-path="url(#clip650)" d="M1026.39 28.5427 L1026.39 35.5912 Q1023.23 33.9709 1019.83 33.1607 Q1016.43 32.3505 1012.78 32.3505 Q1007.23 32.3505 1004.43 34.0519 Q1001.68 35.7533 1001.68 39.156 Q1001.68 41.7486 1003.66 43.2475 Q1005.65 44.7058 1011.65 46.0426 L1014.2 46.6097 Q1022.14 48.3111 1025.46 51.4303 Q1028.82 54.509 1028.82 60.0587 Q1028.82 66.3781 1023.8 70.0644 Q1018.82 73.7508 1010.07 73.7508 Q1006.42 73.7508 1002.45 73.0216 Q998.52 72.3329 994.145 70.9151 L994.145 63.2184 Q998.277 65.3654 1002.29 66.4591 Q1006.3 67.5124 1010.23 67.5124 Q1015.49 67.5124 1018.33 65.73 Q1021.16 63.9071 1021.16 60.6258 Q1021.16 57.5877 1019.1 55.9673 Q1017.07 54.3469 1010.15 52.8481 L1007.55 52.2405 Q1000.63 50.7821 997.548 47.7845 Q994.469 44.7463 994.469 39.4801 Q994.469 33.0797 999.006 29.5959 Q1003.54 26.1121 1011.89 26.1121 Q1016.02 26.1121 1019.67 26.7198 Q1023.31 27.3274 1026.39 28.5427 Z" fill="#000000" fill-rule="nonzero" fill-opacity="1" /><path clip-path="url(#clip650)" d="M1084.64 32.4315 Q1078.65 32.4315 1075.16 37.1306 Q1071.68 41.7891 1071.68 49.9314 Q1071.68 58.0738 1075.12 62.7728 Q1078.61 67.4314 1084.64 67.4314 Q1090.6 67.4314 1094.08 62.7323 Q1097.56 58.0333 1097.56 49.9314 Q1097.56 41.8701 1094.08 37.1711 Q1090.6 32.4315 1084.64 32.4315 M1084.64 26.1121 Q1094.36 26.1121 1099.91 32.4315 Q1105.46 38.7509 1105.46 49.9314 Q1105.46 61.0714 1099.91 67.4314 Q1094.36 73.7508 1084.64 73.7508 Q1074.88 73.7508 1069.33 67.4314 Q1063.82 61.0714 1063.82 49.9314 Q1063.82 38.7509 1069.33 32.4315 Q1074.88 26.1121 1084.64 26.1121 Z" fill="#000000" fill-rule="nonzero" fill-opacity="1" /><path clip-path="url(#clip650)" d="M1155.53 45.1919 L1155.53 72.576 L1148.08 72.576 L1148.08 45.4349 Q1148.08 38.994 1145.57 35.7938 Q1143.06 32.5936 1138.03 32.5936 Q1132 32.5936 1128.51 36.4419 Q1125.03 40.2903 1125.03 46.9338 L1125.03 72.576 L1117.54 72.576 L1117.54 27.2059 L1125.03 27.2059 L1125.03 34.2544 Q1127.7 30.163 1131.31 28.1376 Q1134.95 26.1121 1139.69 26.1121 Q1147.51 26.1121 1151.52 30.9732 Q1155.53 35.7938 1155.53 45.1919 Z" fill="#000000" fill-rule="nonzero" fill-opacity="1" /><path clip-path="url(#clip650)" d="M1170.4 9.54393 L1177.85 9.54393 L1177.85 72.576 L1170.4 72.576 L1170.4 9.54393 Z" fill="#000000" fill-rule="nonzero" fill-opacity="1" /><path clip-path="url(#clip650)" d="M1212.33 76.7889 Q1209.17 84.8907 1206.17 87.3618 Q1203.17 89.8329 1198.15 89.8329 L1192.19 89.8329 L1192.19 83.5945 L1196.57 83.5945 Q1199.65 83.5945 1201.35 82.1361 Q1203.05 80.6778 1205.12 75.2496 L1206.45 71.8468 L1188.1 27.2059 L1196 27.2059 L1210.18 62.6918 L1224.36 27.2059 L1232.26 27.2059 L1212.33 76.7889 Z" fill="#000000" fill-rule="nonzero" fill-opacity="1" /><path clip-path="url(#clip650)" d="M1304.24 35.9153 Q1307.04 30.8922 1310.93 28.5022 Q1314.81 26.1121 1320.08 26.1121 Q1327.17 26.1121 1331.02 31.0947 Q1334.87 36.0368 1334.87 45.1919 L1334.87 72.576 L1327.37 72.576 L1327.37 45.4349 Q1327.37 38.913 1325.06 35.7533 Q1322.75 32.5936 1318.02 32.5936 Q1312.22 32.5936 1308.86 36.4419 Q1305.5 40.2903 1305.5 46.9338 L1305.5 72.576 L1298 72.576 L1298 45.4349 Q1298 38.8725 1295.69 35.7533 Q1293.39 32.5936 1288.57 32.5936 Q1282.85 32.5936 1279.49 36.4824 Q1276.13 40.3308 1276.13 46.9338 L1276.13 72.576 L1268.63 72.576 L1268.63 27.2059 L1276.13 27.2059 L1276.13 34.2544 Q1278.68 30.082 1282.25 28.0971 Q1285.81 26.1121 1290.71 26.1121 Q1295.65 26.1121 1299.1 28.6237 Q1302.58 31.1352 1304.24 35.9153 Z" fill="#000000" fill-rule="nonzero" fill-opacity="1" /><path clip-path="url(#clip650)" d="M1370.35 49.7694 Q1361.32 49.7694 1357.84 51.8354 Q1354.35 53.9013 1354.35 58.8839 Q1354.35 62.8538 1356.94 65.2034 Q1359.58 67.5124 1364.07 67.5124 Q1370.27 67.5124 1374 63.1374 Q1377.77 58.7219 1377.77 51.4303 L1377.77 49.7694 L1370.35 49.7694 M1385.22 46.6907 L1385.22 72.576 L1377.77 72.576 L1377.77 65.6895 Q1375.21 69.8214 1371.41 71.8063 Q1367.6 73.7508 1362.09 73.7508 Q1355.12 73.7508 1350.99 69.8619 Q1346.9 65.9325 1346.9 59.3701 Q1346.9 51.7138 1352 47.825 Q1357.15 43.9361 1367.31 43.9361 L1377.77 43.9361 L1377.77 43.2069 Q1377.77 38.0623 1374.36 35.2672 Q1371 32.4315 1364.88 32.4315 Q1361 32.4315 1357.31 33.3632 Q1353.62 34.295 1350.22 36.1584 L1350.22 29.2718 Q1354.31 27.692 1358.16 26.9223 Q1362.01 26.1121 1365.65 26.1121 Q1375.5 26.1121 1380.36 31.2163 Q1385.22 36.3204 1385.22 46.6907 Z" fill="#000000" fill-rule="nonzero" fill-opacity="1" /><path clip-path="url(#clip650)" d="M1407.95 14.324 L1407.95 27.2059 L1423.3 27.2059 L1423.3 32.9987 L1407.95 32.9987 L1407.95 57.6282 Q1407.95 63.1779 1409.44 64.7578 Q1410.98 66.3376 1415.64 66.3376 L1423.3 66.3376 L1423.3 72.576 L1415.64 72.576 Q1407.01 72.576 1403.73 69.3758 Q1400.45 66.1351 1400.45 57.6282 L1400.45 32.9987 L1394.98 32.9987 L1394.98 27.2059 L1400.45 27.2059 L1400.45 14.324 L1407.95 14.324 Z" fill="#000000" fill-rule="nonzero" fill-opacity="1" /><path clip-path="url(#clip650)" d="M1440.47 14.324 L1440.47 27.2059 L1455.83 27.2059 L1455.83 32.9987 L1440.47 32.9987 L1440.47 57.6282 Q1440.47 63.1779 1441.97 64.7578 Q1443.51 66.3376 1448.17 66.3376 L1455.83 66.3376 L1455.83 72.576 L1448.17 72.576 Q1439.54 72.576 1436.26 69.3758 Q1432.98 66.1351 1432.98 57.6282 L1432.98 32.9987 L1427.51 32.9987 L1427.51 27.2059 L1432.98 27.2059 L1432.98 14.324 L1440.47 14.324 Z" fill="#000000" fill-rule="nonzero" fill-opacity="1" /><path clip-path="url(#clip650)" d="M1504.44 48.0275 L1504.44 51.6733 L1470.17 51.6733 Q1470.65 59.3701 1474.79 63.421 Q1478.96 67.4314 1486.37 67.4314 Q1490.66 67.4314 1494.68 66.3781 Q1498.73 65.3249 1502.7 63.2184 L1502.7 70.267 Q1498.69 71.9684 1494.47 72.8596 Q1490.26 73.7508 1485.93 73.7508 Q1475.07 73.7508 1468.71 67.4314 Q1462.39 61.1119 1462.39 50.3365 Q1462.39 39.1965 1468.38 32.6746 Q1474.42 26.1121 1484.63 26.1121 Q1493.78 26.1121 1499.09 32.0264 Q1504.44 37.9003 1504.44 48.0275 M1496.98 45.84 Q1496.9 39.7232 1493.54 36.0774 Q1490.22 32.4315 1484.71 32.4315 Q1478.47 32.4315 1474.7 35.9558 Q1470.98 39.4801 1470.41 45.8805 L1496.98 45.84 Z" fill="#000000" fill-rule="nonzero" fill-opacity="1" /><path clip-path="url(#clip650)" d="M1542.96 34.1734 Q1541.71 33.4443 1540.21 33.1202 Q1538.75 32.7556 1536.97 32.7556 Q1530.65 32.7556 1527.24 36.8875 Q1523.88 40.9789 1523.88 48.6757 L1523.88 72.576 L1516.39 72.576 L1516.39 27.2059 L1523.88 27.2059 L1523.88 34.2544 Q1526.23 30.1225 1530 28.1376 Q1533.77 26.1121 1539.15 26.1121 Q1539.92 26.1121 1540.86 26.2337 Q1541.79 26.3147 1542.92 26.5172 L1542.96 34.1734 Z" fill="#000000" fill-rule="nonzero" fill-opacity="1" /><path clip-path="url(#clip650)" d="M1600.12 9.54393 L1600.12 15.7418 L1592.99 15.7418 Q1588.98 15.7418 1587.4 17.3622 Q1585.86 18.9825 1585.86 23.1955 L1585.86 27.2059 L1598.14 27.2059 L1598.14 32.9987 L1585.86 32.9987 L1585.86 72.576 L1578.37 72.576 L1578.37 32.9987 L1571.24 32.9987 L1571.24 27.2059 L1578.37 27.2059 L1578.37 24.0462 Q1578.37 16.471 1581.89 13.0277 Q1585.42 9.54393 1593.07 9.54393 L1600.12 9.54393 Z" fill="#000000" fill-rule="nonzero" fill-opacity="1" /><path clip-path="url(#clip650)" d="M1623.94 32.4315 Q1617.94 32.4315 1614.46 37.1306 Q1610.98 41.7891 1610.98 49.9314 Q1610.98 58.0738 1614.42 62.7728 Q1617.9 67.4314 1623.94 67.4314 Q1629.89 67.4314 1633.38 62.7323 Q1636.86 58.0333 1636.86 49.9314 Q1636.86 41.8701 1633.38 37.1711 Q1629.89 32.4315 1623.94 32.4315 M1623.94 26.1121 Q1633.66 26.1121 1639.21 32.4315 Q1644.76 38.7509 1644.76 49.9314 Q1644.76 61.0714 1639.21 67.4314 Q1633.66 73.7508 1623.94 73.7508 Q1614.18 73.7508 1608.63 67.4314 Q1603.12 61.0714 1603.12 49.9314 Q1603.12 38.7509 1608.63 32.4315 Q1614.18 26.1121 1623.94 26.1121 Z" fill="#000000" fill-rule="nonzero" fill-opacity="1" /><path clip-path="url(#clip650)" d="M1683.41 34.1734 Q1682.15 33.4443 1680.65 33.1202 Q1679.19 32.7556 1677.41 32.7556 Q1671.09 32.7556 1667.69 36.8875 Q1664.33 40.9789 1664.33 48.6757 L1664.33 72.576 L1656.83 72.576 L1656.83 27.2059 L1664.33 27.2059 L1664.33 34.2544 Q1666.68 30.1225 1670.44 28.1376 Q1674.21 26.1121 1679.6 26.1121 Q1680.37 26.1121 1681.3 26.2337 Q1682.23 26.3147 1683.37 26.5172 L1683.41 34.1734 Z" fill="#000000" fill-rule="nonzero" fill-opacity="1" /><path clip-path="url(#clip650)" d="M1746.52 28.5427 L1746.52 35.5912 Q1743.36 33.9709 1739.96 33.1607 Q1736.55 32.3505 1732.91 32.3505 Q1727.36 32.3505 1724.56 34.0519 Q1721.81 35.7533 1721.81 39.156 Q1721.81 41.7486 1723.79 43.2475 Q1725.78 44.7058 1731.77 46.0426 L1734.33 46.6097 Q1742.27 48.3111 1745.59 51.4303 Q1748.95 54.509 1748.95 60.0587 Q1748.95 66.3781 1743.93 70.0644 Q1738.94 73.7508 1730.19 73.7508 Q1726.55 73.7508 1722.58 73.0216 Q1718.65 72.3329 1714.27 70.9151 L1714.27 63.2184 Q1718.41 65.3654 1722.42 66.4591 Q1726.43 67.5124 1730.36 67.5124 Q1735.62 67.5124 1738.46 65.73 Q1741.29 63.9071 1741.29 60.6258 Q1741.29 57.5877 1739.23 55.9673 Q1737.2 54.3469 1730.28 52.8481 L1727.68 52.2405 Q1720.76 50.7821 1717.68 47.7845 Q1714.6 44.7463 1714.6 39.4801 Q1714.6 33.0797 1719.14 29.5959 Q1723.67 26.1121 1732.02 26.1121 Q1736.15 26.1121 1739.8 26.7198 Q1743.44 27.3274 1746.52 28.5427 Z" fill="#000000" fill-rule="nonzero" fill-opacity="1" /><path clip-path="url(#clip650)" d="M1796.14 35.9153 Q1798.94 30.8922 1802.83 28.5022 Q1806.72 26.1121 1811.98 26.1121 Q1819.07 26.1121 1822.92 31.0947 Q1826.77 36.0368 1826.77 45.1919 L1826.77 72.576 L1819.27 72.576 L1819.27 45.4349 Q1819.27 38.913 1816.97 35.7533 Q1814.66 32.5936 1809.92 32.5936 Q1804.12 32.5936 1800.76 36.4419 Q1797.4 40.2903 1797.4 46.9338 L1797.4 72.576 L1789.9 72.576 L1789.9 45.4349 Q1789.9 38.8725 1787.6 35.7533 Q1785.29 32.5936 1780.47 32.5936 Q1774.75 32.5936 1771.39 36.4824 Q1768.03 40.3308 1768.03 46.9338 L1768.03 72.576 L1760.54 72.576 L1760.54 27.2059 L1768.03 27.2059 L1768.03 34.2544 Q1770.58 30.082 1774.15 28.0971 Q1777.71 26.1121 1782.61 26.1121 Q1787.56 26.1121 1791 28.6237 Q1794.48 31.1352 1796.14 35.9153 Z" fill="#000000" fill-rule="nonzero" fill-opacity="1" /><path clip-path="url(#clip650)" d="M1862.25 49.7694 Q1853.22 49.7694 1849.74 51.8354 Q1846.25 53.9013 1846.25 58.8839 Q1846.25 62.8538 1848.85 65.2034 Q1851.48 67.5124 1855.98 67.5124 Q1862.17 67.5124 1865.9 63.1374 Q1869.67 58.7219 1869.67 51.4303 L1869.67 49.7694 L1862.25 49.7694 M1877.12 46.6907 L1877.12 72.576 L1869.67 72.576 L1869.67 65.6895 Q1867.12 69.8214 1863.31 71.8063 Q1859.5 73.7508 1853.99 73.7508 Q1847.02 73.7508 1842.89 69.8619 Q1838.8 65.9325 1838.8 59.3701 Q1838.8 51.7138 1843.9 47.825 Q1849.05 43.9361 1859.22 43.9361 L1869.67 43.9361 L1869.67 43.2069 Q1869.67 38.0623 1866.26 35.2672 Q1862.9 32.4315 1856.79 32.4315 Q1852.9 32.4315 1849.21 33.3632 Q1845.52 34.295 1842.12 36.1584 L1842.12 29.2718 Q1846.21 27.692 1850.06 26.9223 Q1853.91 26.1121 1857.56 26.1121 Q1867.4 26.1121 1872.26 31.2163 Q1877.12 36.3204 1877.12 46.6907 Z" fill="#000000" fill-rule="nonzero" fill-opacity="1" /><path clip-path="url(#clip650)" d="M1892.47 9.54393 L1899.93 9.54393 L1899.93 72.576 L1892.47 72.576 L1892.47 9.54393 Z" fill="#000000" fill-rule="nonzero" fill-opacity="1" /><path clip-path="url(#clip650)" d="M1915.52 9.54393 L1922.98 9.54393 L1922.98 72.576 L1915.52 72.576 L1915.52 9.54393 Z" fill="#000000" fill-rule="nonzero" fill-opacity="1" /><path clip-path="url(#clip650)" d="M2000.27 35.9153 Q2003.06 30.8922 2006.95 28.5022 Q2010.84 26.1121 2016.11 26.1121 Q2023.2 26.1121 2027.04 31.0947 Q2030.89 36.0368 2030.89 45.1919 L2030.89 72.576 L2023.4 72.576 L2023.4 45.4349 Q2023.4 38.913 2021.09 35.7533 Q2018.78 32.5936 2014.04 32.5936 Q2008.25 32.5936 2004.89 36.4419 Q2001.52 40.2903 2001.52 46.9338 L2001.52 72.576 L1994.03 72.576 L1994.03 45.4349 Q1994.03 38.8725 1991.72 35.7533 Q1989.41 32.5936 1984.59 32.5936 Q1978.88 32.5936 1975.52 36.4824 Q1972.16 40.3308 1972.16 46.9338 L1972.16 72.576 L1964.66 72.576 L1964.66 27.2059 L1972.16 27.2059 L1972.16 34.2544 Q1974.71 30.082 1978.27 28.0971 Q1981.84 26.1121 1986.74 26.1121 Q1991.68 26.1121 1995.12 28.6237 Q1998.61 31.1352 2000.27 35.9153 Z" fill="#000000" fill-rule="nonzero" fill-opacity="1" /><path clip-path="url(#clip650)" d="M2066.38 49.7694 Q2057.35 49.7694 2053.86 51.8354 Q2050.38 53.9013 2050.38 58.8839 Q2050.38 62.8538 2052.97 65.2034 Q2055.6 67.5124 2060.1 67.5124 Q2066.3 67.5124 2070.02 63.1374 Q2073.79 58.7219 2073.79 51.4303 L2073.79 49.7694 L2066.38 49.7694 M2081.25 46.6907 L2081.25 72.576 L2073.79 72.576 L2073.79 65.6895 Q2071.24 69.8214 2067.43 71.8063 Q2063.62 73.7508 2058.12 73.7508 Q2051.15 73.7508 2047.02 69.8619 Q2042.92 65.9325 2042.92 59.3701 Q2042.92 51.7138 2048.03 47.825 Q2053.17 43.9361 2063.34 43.9361 L2073.79 43.9361 L2073.79 43.2069 Q2073.79 38.0623 2070.39 35.2672 Q2067.03 32.4315 2060.91 32.4315 Q2057.02 32.4315 2053.34 33.3632 Q2049.65 34.295 2046.25 36.1584 L2046.25 29.2718 Q2050.34 27.692 2054.19 26.9223 Q2058.03 26.1121 2061.68 26.1121 Q2071.52 26.1121 2076.38 31.2163 Q2081.25 36.3204 2081.25 46.6907 Z" fill="#000000" fill-rule="nonzero" fill-opacity="1" /><path clip-path="url(#clip650)" d="M2103.97 14.324 L2103.97 27.2059 L2119.32 27.2059 L2119.32 32.9987 L2103.97 32.9987 L2103.97 57.6282 Q2103.97 63.1779 2105.47 64.7578 Q2107.01 66.3376 2111.67 66.3376 L2119.32 66.3376 L2119.32 72.576 L2111.67 72.576 Q2103.04 72.576 2099.76 69.3758 Q2096.48 66.1351 2096.48 57.6282 L2096.48 32.9987 L2091.01 32.9987 L2091.01 27.2059 L2096.48 27.2059 L2096.48 14.324 L2103.97 14.324 Z" fill="#000000" fill-rule="nonzero" fill-opacity="1" /><path clip-path="url(#clip650)" d="M2164.45 35.9153 Q2167.25 30.8922 2171.14 28.5022 Q2175.02 26.1121 2180.29 26.1121 Q2187.38 26.1121 2191.23 31.0947 Q2195.08 36.0368 2195.08 45.1919 L2195.08 72.576 L2187.58 72.576 L2187.58 45.4349 Q2187.58 38.913 2185.27 35.7533 Q2182.96 32.5936 2178.22 32.5936 Q2172.43 32.5936 2169.07 36.4419 Q2165.71 40.2903 2165.71 46.9338 L2165.71 72.576 L2158.21 72.576 L2158.21 45.4349 Q2158.21 38.8725 2155.9 35.7533 Q2153.6 32.5936 2148.77 32.5936 Q2143.06 32.5936 2139.7 36.4824 Q2136.34 40.3308 2136.34 46.9338 L2136.34 72.576 L2128.84 72.576 L2128.84 27.2059 L2136.34 27.2059 L2136.34 34.2544 Q2138.89 30.082 2142.46 28.0971 Q2146.02 26.1121 2150.92 26.1121 Q2155.86 26.1121 2159.31 28.6237 Q2162.79 31.1352 2164.45 35.9153 Z" fill="#000000" fill-rule="nonzero" fill-opacity="1" /><path clip-path="url(#clip650)" d="M2209.17 54.671 L2209.17 27.2059 L2216.63 27.2059 L2216.63 54.3874 Q2216.63 60.8284 2219.14 64.0691 Q2221.65 67.2693 2226.67 67.2693 Q2232.71 67.2693 2236.19 63.421 Q2239.72 59.5726 2239.72 52.9291 L2239.72 27.2059 L2247.17 27.2059 L2247.17 72.576 L2239.72 72.576 L2239.72 65.6084 Q2237 69.7404 2233.4 71.7658 Q2229.83 73.7508 2225.09 73.7508 Q2217.28 73.7508 2213.22 68.8897 Q2209.17 64.0286 2209.17 54.671 M2227.93 26.1121 L2227.93 26.1121 Z" fill="#000000" fill-rule="nonzero" fill-opacity="1" /><path clip-path="url(#clip650)" d="M2262.52 9.54393 L2269.98 9.54393 L2269.98 72.576 L2262.52 72.576 L2262.52 9.54393 Z" fill="#000000" fill-rule="nonzero" fill-opacity="1" /><path clip-path="url(#clip650)" d="M2314.5 28.5427 L2314.5 35.5912 Q2311.34 33.9709 2307.93 33.1607 Q2304.53 32.3505 2300.89 32.3505 Q2295.34 32.3505 2292.54 34.0519 Q2289.79 35.7533 2289.79 39.156 Q2289.79 41.7486 2291.77 43.2475 Q2293.76 44.7058 2299.75 46.0426 L2302.3 46.6097 Q2310.24 48.3111 2313.57 51.4303 Q2316.93 54.509 2316.93 60.0587 Q2316.93 66.3781 2311.9 70.0644 Q2306.92 73.7508 2298.17 73.7508 Q2294.53 73.7508 2290.56 73.0216 Q2286.63 72.3329 2282.25 70.9151 L2282.25 63.2184 Q2286.38 65.3654 2290.39 66.4591 Q2294.4 67.5124 2298.33 67.5124 Q2303.6 67.5124 2306.44 65.73 Q2309.27 63.9071 2309.27 60.6258 Q2309.27 57.5877 2307.21 55.9673 Q2305.18 54.3469 2298.25 52.8481 L2295.66 52.2405 Q2288.73 50.7821 2285.65 47.7845 Q2282.58 44.7463 2282.58 39.4801 Q2282.58 33.0797 2287.11 29.5959 Q2291.65 26.1121 2299.99 26.1121 Q2304.13 26.1121 2307.77 26.7198 Q2311.42 27.3274 2314.5 28.5427 Z" fill="#000000" fill-rule="nonzero" fill-opacity="1" /><polyline clip-path="url(#clip652)" style="stroke:#009af9; stroke-linecap:round; stroke-linejoin:round; stroke-width:4; stroke-opacity:1; fill:none" points="250.72,1393.28 658.883,1343.63 1067.04,1122.15 1475.21,846.693 1883.37,537.055 2291.53,168.339 "/>
<polyline clip-path="url(#clip652)" style="stroke:#e26f46; stroke-linecap:round; stroke-linejoin:round; stroke-width:4; stroke-opacity:1; fill:none" points="250.72,1435.94 658.883,1377.45 1067.04,1205.76 1475.21,874.179 1883.37,541.997 2291.53,161.699 "/>
<path clip-path="url(#clip650)" d="M1967.38 1429.14 L2280.65 1429.14 L2280.65 1273.62 L1967.38 1273.62  Z" fill="#ffffff" fill-rule="evenodd" fill-opacity="1"/>
<polyline clip-path="url(#clip650)" style="stroke:#000000; stroke-linecap:round; stroke-linejoin:round; stroke-width:4; stroke-opacity:1; fill:none" points="1967.38,1429.14 2280.65,1429.14 2280.65,1273.62 1967.38,1273.62 1967.38,1429.14 "/>
<polyline clip-path="url(#clip650)" style="stroke:#009af9; stroke-linecap:round; stroke-linejoin:round; stroke-width:4; stroke-opacity:1; fill:none" points="1991.41,1325.46 2135.63,1325.46 "/>
<path clip-path="url(#clip650)" d="M2180.55 1313.88 L2172.24 1318.37 L2180.55 1322.88 L2179.2 1325.15 L2171.43 1320.45 L2171.43 1329.18 L2168.79 1329.18 L2168.79 1320.45 L2161.01 1325.15 L2159.67 1322.88 L2167.98 1318.37 L2159.67 1313.88 L2161.01 1311.58 L2168.79 1316.28 L2168.79 1307.56 L2171.43 1307.56 L2171.43 1316.28 L2179.2 1311.58 L2180.55 1313.88 Z" fill="#000000" fill-rule="nonzero" fill-opacity="1" /><polyline clip-path="url(#clip650)" style="stroke:#e26f46; stroke-linecap:round; stroke-linejoin:round; stroke-width:4; stroke-opacity:1; fill:none" points="1991.41,1377.3 2135.63,1377.3 "/>
<path clip-path="url(#clip650)" d="M2180.01 1373.63 Q2181.61 1370.76 2183.83 1369.4 Q2186.06 1368.03 2189.07 1368.03 Q2193.12 1368.03 2195.32 1370.88 Q2197.51 1373.7 2197.51 1378.93 L2197.51 1394.58 L2193.23 1394.58 L2193.23 1379.07 Q2193.23 1375.35 2191.91 1373.54 Q2190.59 1371.73 2187.88 1371.73 Q2184.57 1371.73 2182.65 1373.93 Q2180.73 1376.13 2180.73 1379.93 L2180.73 1394.58 L2176.45 1394.58 L2176.45 1379.07 Q2176.45 1375.32 2175.13 1373.54 Q2173.81 1371.73 2171.06 1371.73 Q2167.79 1371.73 2165.87 1373.96 Q2163.95 1376.16 2163.95 1379.93 L2163.95 1394.58 L2159.67 1394.58 L2159.67 1368.66 L2163.95 1368.66 L2163.95 1372.68 Q2165.41 1370.3 2167.44 1369.17 Q2169.48 1368.03 2172.28 1368.03 Q2175.11 1368.03 2177.07 1369.47 Q2179.07 1370.9 2180.01 1373.63 Z" fill="#000000" fill-rule="nonzero" fill-opacity="1" /><path clip-path="url(#clip650)" d="M2205.57 1384.35 L2205.57 1368.66 L2209.83 1368.66 L2209.83 1384.19 Q2209.83 1387.87 2211.26 1389.72 Q2212.7 1391.55 2215.57 1391.55 Q2219.02 1391.55 2221.01 1389.35 Q2223.02 1387.15 2223.02 1383.35 L2223.02 1368.66 L2227.28 1368.66 L2227.28 1394.58 L2223.02 1394.58 L2223.02 1390.6 Q2221.47 1392.96 2219.41 1394.12 Q2217.38 1395.25 2214.67 1395.25 Q2210.2 1395.25 2207.88 1392.48 Q2205.57 1389.7 2205.57 1384.35 M2216.29 1368.03 L2216.29 1368.03 Z" fill="#000000" fill-rule="nonzero" fill-opacity="1" /><path clip-path="url(#clip650)" d="M2236.06 1358.56 L2240.31 1358.56 L2240.31 1394.58 L2236.06 1394.58 L2236.06 1358.56 Z" fill="#000000" fill-rule="nonzero" fill-opacity="1" /><path clip-path="url(#clip650)" d="M2251.91 1388.7 L2256.61 1388.7 L2256.61 1394.58 L2251.91 1394.58 L2251.91 1388.7 M2251.91 1360.02 L2256.61 1360.02 L2256.61 1375.18 L2256.15 1383.45 L2252.4 1383.45 L2251.91 1375.18 L2251.91 1360.02 Z" fill="#000000" fill-rule="nonzero" fill-opacity="1" /></svg>
